<?xml version="1.0" standalone="no"?>
<!DOCTYPE svg PUBLIC "-//W3C//DTD SVG 1.1//EN" "http://www.w3.org/Graphics/SVG/1.1/DTD/svg11.dtd" >
<svg xmlns="http://www.w3.org/2000/svg">
<metadata>
This is a custom SVG webfont generated by Font Squirrel.
Copyright   : Copyright c 2010 by Jeremy Dooley All rights reserved
Designer    : httpwwwinsignedesigncom
Foundry     : Jeremy Dooley
Foundry URL : httpwwwinsignedesigncom
</metadata>
<defs>
<font id="SommetSlabBold" horiz-adv-x="1058" >
<font-face units-per-em="2048" ascent="1536" descent="-512" />
<missing-glyph horiz-adv-x="460" />
<glyph unicode=" "  horiz-adv-x="460" />
<glyph unicode="&#x09;" horiz-adv-x="460" />
<glyph unicode="&#xa0;" horiz-adv-x="460" />
<glyph unicode="!" horiz-adv-x="405" d="M94 4v293h232v-293h-232zM94 438v1071h232v-1071h-232z" />
<glyph unicode="&#x22;" horiz-adv-x="778" d="M111 1473h229l-31 -547h-168zM438 1473h230l-31 -547h-168z" />
<glyph unicode="#" horiz-adv-x="1435" d="M72 305v217h276l94 266h-202v220h278l113 315h223l-113 -315h183l110 315h226l-113 -315h172v-220h-248l-94 -266h199v-217h-275l-106 -305h-224l107 305h-182l-107 -305h-223l106 305h-200zM571 522h183l92 266h-180z" />
<glyph unicode="$" horiz-adv-x="1112" d="M70 49v332h206v-180q125 -35 224 -35q303 0 303 225q0 57 -40 103.5t-102.5 80t-139.5 66.5t-153.5 73t-139 89t-102.5 127t-40 174q0 336 393 385v188h226v-188q135 -14 290 -78v-330h-207v191q-88 37 -172 37q-285 0 -284 -195q0 -68 53 -121t133 -87t172 -80t172 -94 t133.5 -135t53.5 -198q0 -180 -103.5 -279.5t-273.5 -127.5v-195h-226v185q-163 4 -376 67z" />
<glyph unicode="%" horiz-adv-x="1939" d="M59 942v240q0 158 78 235.5t252 77.5q172 0 250 -78t78 -235v-240q0 -160 -78 -237.5t-250 -77.5q-174 0 -252 77.5t-78 237.5zM274 944q0 -80 22.5 -112.5t92.5 -32.5q76 0 94.5 44t18.5 148v189q0 80 -21.5 111.5t-91.5 31.5q-41 0 -65.5 -12.5t-34.5 -42t-12.5 -57 t-2.5 -81.5v-186zM334 -23l987 1510h264l-987 -1510h-264zM1194 293v242q0 158 78 235.5t252 77.5t251.5 -78t77.5 -235v-242q0 -158 -77.5 -235.5t-251.5 -77.5t-252 77.5t-78 235.5zM1409 295q0 -80 22.5 -111.5t92.5 -31.5q41 0 65.5 12t34.5 42t12 57.5t2 80.5v186 q0 80 -22.5 113t-91.5 33q-41 0 -65.5 -12.5t-35 -42t-12.5 -57t-2 -81.5v-188z" />
<glyph unicode="&#x26;" horiz-adv-x="1701" d="M94 383v86q0 129 72 207t188 94q-117 29 -175 94.5t-58 190.5v47q0 217 135 305t403 88q193 0 465 -55v-330h-209v166q-145 23 -247 22q-172 0 -239 -45t-67 -151v-47q0 -180 281 -181h1036v-319h-196v135h-154v-510h123v-180h-485v180h120v510h-460q-133 0 -211 -48 t-78 -173v-86q0 -219 328 -219q119 0 221 18l26 -176q-145 -27 -245 -26q-96 0 -171 8t-154 33.5t-131 68.5t-85 117t-33 176z" />
<glyph unicode="'" horiz-adv-x="440" d="M109 1473h229l-31 -547h-168z" />
<glyph unicode="(" horiz-adv-x="675" d="M106 635q0 297 111 549t299 418l78 -68q-109 -143 -177.5 -405.5t-68.5 -494t68.5 -493.5t177.5 -405l-78 -68q-188 166 -299 418t-111 549z" />
<glyph unicode=")" horiz-adv-x="675" d="M82 -264q111 143 178.5 404t67.5 494.5t-67.5 495t-178.5 404.5l80 68q186 -166 296.5 -419t110.5 -548q0 -297 -109.5 -549t-297.5 -418z" />
<glyph unicode="*" horiz-adv-x="876" d="M33 1153l88 199l246 -123l-43 258h231l-43 -258l246 123l84 -199l-285 -53l199 -189l-178 -127l-140 240l-137 -240l-180 127l196 189z" />
<glyph unicode="+" horiz-adv-x="1073" d="M14 442v209h418v396h217v-396h410v-209h-410v-397h-217v397h-418z" />
<glyph unicode="," horiz-adv-x="477" d="M41 -256l127 524h264l-192 -524h-199z" />
<glyph unicode="-" horiz-adv-x="749" d="M106 510v192h539v-192h-539z" />
<glyph unicode="." horiz-adv-x="415" d="M92 0v268h232v-268h-232z" />
<glyph unicode="/" horiz-adv-x="956" d="M10 -98l686 1657h238l-688 -1657h-236z" />
<glyph unicode="0" horiz-adv-x="1318" d="M90 530v412q0 270 140.5 411.5t420.5 141.5h17q281 0 421 -141.5t140 -411.5v-412q0 -264 -141.5 -407t-419.5 -143h-17q-279 0 -420 143t-141 407zM344 532q0 -170 68.5 -265t238.5 -95h17q170 0 239.5 95t69.5 265v408q0 180 -67.5 272.5t-241.5 92.5h-17 q-174 0 -240.5 -92.5t-66.5 -272.5v-408z" />
<glyph unicode="1" horiz-adv-x="661" d="M131 0v180h119v1084h-119v209h365v-1293h120v-180h-485z" />
<glyph unicode="2" horiz-adv-x="1284" d="M86 0v197q461 373 582 485q242 233 245 375q0 133 -65.5 190.5t-222.5 57.5q-162 0 -287 -48v-186h-207v330q225 92 492 92q272 0 408 -104.5t136 -335.5q0 -53 -17 -107.5t-41 -98.5t-75 -102.5t-90 -97.5t-117.5 -105.5t-127 -105.5t-149.5 -118l-157 -121h586v182h209 v-379h-1102z" />
<glyph unicode="3" horiz-adv-x="1236" d="M94 27v329h209v-166q152 -18 260 -18q352 0 352 211v86q0 119 -80.5 162t-220.5 43h-120l-5 182h109q293 0 293 199v47q0 106 -73 153.5t-253 47.5q-88 0 -239 -25v-193h-209v330q225 80 456 80q276 0 418 -87t142 -306v-47q0 -125 -58.5 -190.5t-175.5 -94.5 q117 -16 188.5 -94t71.5 -207v-86q0 -403 -596 -403q-190 0 -469 47z" />
<glyph unicode="4" horiz-adv-x="1234" d="M27 330v186l759 957h293l-770 -957h473v313h236v-313h188v-186h-188v-150h125v-180h-488v180h127v150h-755z" />
<glyph unicode="5" horiz-adv-x="1216" d="M80 39v330h209v-179q129 -25 219 -24q174 0 284.5 68.5t110.5 228.5v8q0 72 -11 114t-54 86t-127 67.5t-231.5 38t-364.5 16.5l114 680h850v-330h-207v151h-444l-63 -327q434 -8 608 -122t174 -374v-8q0 -133 -49 -230.5t-137.5 -150.5t-196 -77.5t-240.5 -24.5 q-186 0 -444 59z" />
<glyph unicode="6" horiz-adv-x="1253" d="M59 449v77q12 377 229.5 617.5t667.5 353.5l58 -176q-463 -115 -672 -436q166 90 352 90h15q248 0 367.5 -112.5t119.5 -358.5v-55q0 -244 -137 -356.5t-424 -112.5h-14q-287 0 -424.5 112.5t-137.5 356.5zM303 451q0 -137 67.5 -208t250.5 -71h14q182 0 249.5 70.5 t67.5 208.5v51q0 141 -67.5 210.5t-249.5 69.5h-14q-182 0 -250 -69.5t-68 -210.5v-51z" />
<glyph unicode="7" horiz-adv-x="1157" d="M55 1143v330h1084v-181l-736 -1292h-268l764 1292h-637v-149h-207z" />
<glyph unicode="8" horiz-adv-x="1353" d="M84 424q0 154 61.5 247t167.5 117q-180 53 -180 312v8q0 223 107.5 305t363.5 82h146q256 0 362.5 -82t106.5 -305v-8q0 -254 -181 -312q106 -25 168 -117.5t62 -246.5q0 -137 -30 -224t-97.5 -135.5t-158.5 -66.5t-232 -18h-146q-283 0 -401.5 91t-118.5 353zM328 428 q0 -154 56 -205t216 -51h154q156 0 213 52t57 204q0 147 -53 202.5t-221 55.5h-146q-168 0 -222 -55.5t-54 -202.5zM371 1106q0 -121 51 -165t182 -44h146q131 0 182 44t51 165q0 119 -49 161t-184 42h-146q-135 0 -184 -42t-49 -161z" />
<glyph unicode="9" horiz-adv-x="1249" d="M53 969v55q0 244 137.5 356.5t423.5 112.5h15q287 0 424 -112.5t137 -356.5v-55q-4 -387 -222 -633t-675 -361l-57 177q463 115 671 436q-166 -90 -352 -90h-14q-248 0 -368 112.5t-120 358.5zM297 971q0 -141 67.5 -211t249.5 -70h15q182 0 249.5 69.5t67.5 211.5v51 q0 135 -68.5 206.5t-248.5 71.5h-15q-180 0 -248.5 -71.5t-68.5 -206.5v-51z" />
<glyph unicode=":" horiz-adv-x="358" d="M68 0v268h231v-268h-231zM68 834v270h231v-270h-231z" />
<glyph unicode=";" horiz-adv-x="468" d="M10 -256l127 524h264l-192 -524h-199zM135 809v295h232v-295h-232z" />
<glyph unicode="&#x3c;" horiz-adv-x="1179" d="M98 461v170l961 409v-192l-725 -303l725 -301v-193z" />
<glyph unicode="=" horiz-adv-x="1075" d="M41 231v211h979v-211h-979zM43 639v209h977v-209h-977z" />
<glyph unicode="&#x3e;" horiz-adv-x="1021" d="M98 51v193l727 301l-727 303v192l961 -409v-170z" />
<glyph unicode="?" horiz-adv-x="913" d="M47 1079v330q207 84 389 84q102 0 179 -16.5t142.5 -57.5t99.5 -119.5t34 -193.5q0 -74 -37 -144.5t-89 -127t-104.5 -110.5t-89 -115.5t-36.5 -121.5v-116h-230v116q0 90 53.5 182.5t118 156t117.5 140t53 140.5q0 111 -51 155t-147 44q-104 0 -193 -27v-199h-209z M305 -8v256h230v-256h-230z" />
<glyph unicode="@" horiz-adv-x="1665" d="M74 711q0 336 244.5 560t580.5 224q340 0 556 -190.5t216 -462.5q0 -559 -440 -559q-59 0 -121.5 34.5t-93.5 102.5q-113 -104 -238 -105q-131 0 -217 82t-86 219q0 178 116 317.5t322 139.5q156 0 232 -73.5t76 -184.5q0 -31 -8.5 -67.5t-20.5 -73.5t-14 -49 q-25 -168 65 -168q80 0 136.5 108.5t56.5 265.5q0 199 -154 325t-383 126q-256 0 -423 -168t-167 -403q0 -295 151.5 -434.5t418.5 -139.5q178 0 307 82l41 -199q-150 -96 -353 -96q-238 0 -413.5 81t-281 261.5t-105.5 444.5zM672 643q-4 -66 32.5 -105.5t104.5 -35.5 q86 2 146.5 81t64.5 171q-2 63 -33 103t-96 36q-100 -4 -157.5 -78t-61.5 -172z" />
<glyph unicode="A" horiz-adv-x="1474" d="M10 0v180h146l407 1112h-143v181h422l475 -1293h147v-180h-516v180h115l-80 246h-494l-77 -246h114v-180h-516zM549 610h375l-187 584z" />
<glyph unicode="B" horiz-adv-x="1372" d="M53 0v180h148v1112h-148v181h756q150 0 242 -24t138 -79t61.5 -121.5t15.5 -177.5q0 -143 -69 -221t-167 -90q129 -8 203 -97.5t74 -230.5v-31q0 -104 -19.5 -173.5t-71 -124t-146.5 -79t-243 -24.5h-774zM446 180h381q121 0 173.5 50.5t52.5 170.5v31q0 133 -48.5 185.5 t-170.5 52.5h-388v-490zM446 840h363q115 0 160 52t45 179q-2 119 -47 170t-158 51h-363v-452z" />
<glyph unicode="C" horiz-adv-x="1224" d="M98 535v403q0 307 143.5 432t456.5 125h62q223 0 354 -74v-331h-209v190q-72 16 -145 16h-62q-203 0 -274.5 -78.5t-71.5 -279.5v-403q0 -199 72 -279t274 -80h62q141 0 319 64l47 -195q-184 -66 -366 -65h-62q-313 0 -456.5 125t-143.5 430z" />
<glyph unicode="D" horiz-adv-x="1417" d="M53 0v180h148v1112h-148v181h707q176 0 286.5 -31t170 -103.5t81 -167t21.5 -245.5v-379q0 -311 -116 -429t-443 -118h-707zM446 180h277q205 0 273.5 85t68.5 282v379q0 197 -68.5 281.5t-273.5 84.5h-277v-1112z" />
<glyph unicode="E" horiz-adv-x="1191" d="M53 0v180h148v1112h-148v181h1077v-330h-206v149h-478v-444h441v-180h-441v-488h478v150h206v-330h-1077z" />
<glyph unicode="F" horiz-adv-x="1150" d="M53 0v180h150v1112h-150v181h1075v-330h-208v149h-474v-465h459v-180h-459v-467h150v-180h-543z" />
<glyph unicode="G" horiz-adv-x="1302" d="M98 535v403q0 307 143.5 432t456.5 125h54q229 0 444 -96v-330h-209v195q-123 33 -235 32h-54q-203 0 -274.5 -78.5t-71.5 -279.5v-403q0 -199 72 -279t274 -80h56q115 0 202 37v436h246v-555q-182 -115 -448 -114h-56q-313 0 -456.5 125t-143.5 430z" />
<glyph unicode="H" horiz-adv-x="1540" d="M53 0v180h148v1112h-148v181h539v-181h-146v-444h648v444h-148v181h541v-181h-148v-1112h148v-180h-541v180h148v488h-648v-488h146v-180h-539z" />
<glyph unicode="I" horiz-adv-x="645" d="M53 0v180h148v1112h-148v181h539v-181h-146v-1112h146v-180h-539z" />
<glyph unicode="J" horiz-adv-x="589" d="M-154 -412l68 172q119 -35 160 -34q57 0 76.5 53t19.5 198v1315h-145v181h538v-181h-147v-1319q0 -233 -72 -336.5t-240 -103.5q-125 0 -258 55z" />
<glyph unicode="K" horiz-adv-x="1343" d="M53 0v180h148v1112h-148v181h539v-181h-146v-473l517 654h335v-181h-188l-430 -516l471 -596h182v-180h-336l-551 729v-549h146v-180h-539z" />
<glyph unicode="L" horiz-adv-x="1124" d="M53 0v180h150v1112h-150v181h543v-181h-147v-1112h450v150h209v-330h-1055z" />
<glyph unicode="M" horiz-adv-x="2181" d="M10 0v180h152l256 1112h-142v181h392l422 -1194l419 1194h394v-181h-146l258 -1112h156v-180h-531v180h129l-180 901l-383 -1101h-233l-389 1101l-176 -901h133v-180h-531z" />
<glyph unicode="N" horiz-adv-x="1492" d="M53 0v180h148v1112h-148v181h393l627 -1098v917h-147v181h542v-181h-149v-1292h-246l-627 1081v-901h148v-180h-541z" />
<glyph unicode="O" horiz-adv-x="1398" d="M98 535v403q0 307 139.5 432t448.5 125h27q307 0 447 -125t140 -432v-403q0 -305 -140 -430t-447 -125h-27q-307 0 -447.5 125t-140.5 430zM352 535q0 -199 71 -281t263 -82h27q193 0 263.5 82t70.5 281v403q0 201 -69 281.5t-265 80.5h-27q-197 0 -265.5 -80.5 t-68.5 -281.5v-403z" />
<glyph unicode="P" horiz-adv-x="1292" d="M53 0v180h148v1112h-148v181h668q283 0 404.5 -94.5t121.5 -362.5q0 -270 -121.5 -364.5t-404.5 -94.5h-275v-377h146v-180h-539zM446 737h275q162 0 216 55.5t54 223.5q0 166 -54 221t-216 55h-275v-555z" />
<glyph unicode="Q" horiz-adv-x="1398" d="M98 535v403q0 307 139.5 432t448.5 125h27q307 0 447 -125t140 -432v-403q0 -281 -116.5 -408t-368.5 -143v-60q0 -72 21.5 -99.5t72.5 -27.5q31 0 148 27l41 -195q-129 -37 -211 -37q-166 0 -236.5 75t-70.5 270v47q-250 18 -366 145t-116 406zM352 535q0 -199 71 -281 t263 -82h27q193 0 263.5 82t70.5 281v403q0 201 -69 281.5t-265 80.5h-27q-197 0 -265.5 -80.5t-68.5 -281.5v-403z" />
<glyph unicode="R" horiz-adv-x="1345" d="M53 0v180h148v1112h-148v181h668q283 0 404.5 -94.5t121.5 -362.5q0 -203 -67.5 -303.5t-212.5 -134.5l196 -398h166v-180h-340l-268 557h-275v-377h146v-180h-539zM446 737h275q162 0 216 55.5t54 223.5q0 166 -54 221t-216 55h-275v-555z" />
<glyph unicode="S" horiz-adv-x="1112" d="M70 49v332h206v-180q125 -35 224 -35q303 0 303 225q0 57 -40 103.5t-102.5 80t-139.5 66.5t-153.5 73t-139 89t-102.5 127t-40 174q0 115 46 195.5t125 120.5t161 57.5t176 17.5q201 0 401 -84v-330h-207v191q-88 37 -172 37q-285 0 -284 -195q0 -68 53 -121t133 -87 t172 -80t172 -94t133.5 -135t53.5 -198q0 -115 -44 -198.5t-120 -130.5t-166 -68.5t-197 -21.5q-143 0 -232 15t-220 54z" />
<glyph unicode="T" horiz-adv-x="1193" d="M20 1143v330h1154v-330h-209v149h-246v-1112h147v-180h-538v180h145v1112h-244v-149h-209z" />
<glyph unicode="U" horiz-adv-x="1431" d="M14 1292v181h539v-181h-145v-741q0 -201 63.5 -282t237.5 -81h16q174 0 237.5 82t63.5 281v741h-145v181h536v-181h-145v-741q0 -315 -130 -444.5t-417 -129.5h-16q-287 0 -417 129.5t-130 444.5v741h-148z" />
<glyph unicode="V" horiz-adv-x="1415" d="M10 1292v181h539v-181h-135l295 -989l292 989h-135v181h539v-181h-148l-448 -1312h-205l-444 1312h-150z" />
<glyph unicode="W" horiz-adv-x="2162" d="M10 1292v181h514v-181h-123l250 -956l328 1147h199l331 -1147l248 956h-121v181h516v-181h-141l-418 -1300h-196l-318 1087l-317 -1087h-197l-418 1300h-137z" />
<glyph unicode="X" horiz-adv-x="1343" d="M10 0v180h164l348 559l-342 553h-162v181h527v-181h-107l234 -399l231 399h-106v181h528v-181h-162l-342 -553l346 -559h166v-180h-526v180h98l-233 402l-234 -402h99v-180h-527z" />
<glyph unicode="Y" horiz-adv-x="1347" d="M14 1292v181h539v-181h-133l254 -536l252 536h-131v181h538v-181h-153l-383 -727v-385h147v-180h-541v180h148v385l-389 727h-148z" />
<glyph unicode="Z" horiz-adv-x="1177" d="M53 0v180l760 1112h-502v-149h-209v330h998v-181l-760 -1112h575v150h209v-330h-1071z" />
<glyph unicode="[" horiz-adv-x="577" d="M106 -313v1845h386v-197h-154v-1452h154v-196h-386z" />
<glyph unicode="\" horiz-adv-x="903" d="M8 1561h230l669 -1598h-231z" />
<glyph unicode="]" horiz-adv-x="577" d="M86 -117h152v1452h-152v197h385v-1845h-385v196z" />
<glyph unicode="^" horiz-adv-x="1081" d="M49 791l502 604l504 -604h-277l-227 301l-227 -301h-275z" />
<glyph unicode="_" horiz-adv-x="1271" d="M113 76h1048v-213h-1048v213z" />
<glyph unicode="`" horiz-adv-x="571" d="M-23 1542l281 37l260 -350l-203 -23z" />
<glyph unicode="a" d="M66 315.5q0 143.5 44 225.5t175 102q24 3 50 3q43 0 92 -8q79 -13 125 -29.5t126 -47.5v152q0 111 -42 160t-132 49q-76 0 -162 -21v-137h-195v280q190 59 367 60q207 0 301 -100.5t94 -292.5v-531h127v-180h-358v94q-197 -102 -301 -110q-16 -3 -35 -3q-26 0 -57 5 q-131 20 -175 103t-44 226.5zM299 315q0 -94 27.5 -144t101.5 -50q78 0 250 80v243q-174 68 -250 68q-129 0 -129 -197z" />
<glyph unicode="b" horiz-adv-x="1089" d="M39 0v180h119v1166h-119v180h352v-588q236 166 354 166q66 0 112 -22.5t70.5 -54.5t38 -88t16.5 -103.5t3 -120.5v-346q0 -74 -3 -121t-16.5 -103.5t-38 -88t-70.5 -54t-112 -22.5q-117 0 -354 118v-98h-352zM391 221q182 -72 264 -71q61 0 79 50t18 156v371 q0 102 -17.5 148.5t-79.5 46.5q-45 0 -127 -41t-137 -80v-580z" />
<glyph unicode="c" horiz-adv-x="968" d="M104 432v219q0 227 106.5 340t350.5 113q133 0 299 -60v-282h-194v149q-66 8 -105 9q-125 0 -174 -64.5t-49 -177.5v-272q0 -113 49 -177.5t174 -64.5q129 0 291 31l27 -168q-182 -47 -318 -47q-244 0 -350.5 112.5t-106.5 339.5z" />
<glyph unicode="d" horiz-adv-x="1091" d="M104 369v346q0 74 3.5 121t16.5 103t37.5 88t71 54.5t111.5 22.5q113 0 354 -166v408h-118v180h352v-1346h119v-180h-353v98q-244 -119 -354 -118q-66 0 -112 22.5t-70.5 54t-37.5 88t-16.5 103.5t-3.5 121zM338 356q0 -106 17.5 -156t78.5 -50q76 0 264 71v580 q-176 121 -264 121q-61 0 -78.5 -46.5t-17.5 -148.5v-371z" />
<glyph unicode="e" horiz-adv-x="1015" d="M104 432v238q0 117 18.5 194.5t50.5 125.5t95.5 72.5t133 33t184.5 8.5q201 0 272.5 -81t71.5 -224v-144q0 -59 -43 -100t-180.5 -72.5t-368.5 -33.5v-43q0 -242 223 -242q174 0 338 57l43 -168q-190 -74 -381 -73q-246 0 -351.5 111.5t-105.5 340.5zM338 567 q373 18 373 111v102q0 74 -19.5 114t-81.5 40q-143 0 -207.5 -38t-64.5 -165v-164z" />
<glyph unicode="f" horiz-adv-x="663" d="M39 0v180h129v723h-129v180h129v64q0 236 98 323q73 65 211 66q48 0 105 -8q57 -6 141 -37l-49 -154q-102 27 -148 27q-78 0 -101.5 -52t-23.5 -165v-64h201v-180h-201v-723h144v-180h-506z" />
<glyph unicode="g" horiz-adv-x="1038" d="M104 369v346q0 74 3.5 121t16.5 103t37.5 88t71 54.5t111.5 22.5q113 0 354 -166v145h234v-1214q0 -100 -26.5 -171t-74 -104.5t-93.5 -47t-101 -13.5q-131 0 -526 102l47 168q352 -86 430 -86q74 0 92 48.5t18 177.5v155q-244 -119 -354 -118q-66 0 -112 22.5t-70.5 54 t-37.5 88t-16.5 103.5t-3.5 121zM338 356q0 -106 17.5 -156t78.5 -50q76 0 264 71v580q-176 121 -264 121q-61 0 -78.5 -46.5t-17.5 -148.5v-371z" />
<glyph unicode="h" horiz-adv-x="1155" d="M39 0v180h127v1166h-119v180h352v-590q252 168 359 168q66 0 111.5 -22.5t70.5 -54.5t38 -88t16 -103.5t3 -120.5v-535h136v-180h-369v715q0 106 -18.5 156.5t-77.5 50.5q-61 0 -269 -123v-619h125v-180h-485z" />
<glyph unicode="i" horiz-adv-x="546" d="M39 0v180h129v723h-123v180h354v-903h125v-180h-485zM168 1255v271h231v-271h-231z" />
<glyph unicode="j" horiz-adv-x="495" d="M-158 -412l56 176q113 -33 170 -32q47 0 67.5 41t20.5 137v993h-119v180h352v-1173q0 -213 -66.5 -295t-218.5 -82q-119 0 -262 55zM154 1255v271h235v-271h-235z" />
<glyph unicode="k" horiz-adv-x="1069" d="M39 0v180h133v1166h-119v180h353v-930l366 487h264v-180h-133l-268 -328l287 -395h133v-180h-275l-374 551v-371h118v-180h-485z" />
<glyph unicode="l" horiz-adv-x="550" d="M41 0v180h123v1166h-119v180h354v-1346h129v-180h-487z" />
<glyph unicode="m" horiz-adv-x="1660" d="M39 0v180h129v723h-129v180h362v-147q221 168 316 168q180 0 221 -170q236 170 334 170q66 0 112 -22.5t70.5 -54.5t37.5 -88t16 -103.5t3 -120.5v-535h127v-180h-358v715q0 106 -18.5 156.5t-77.5 50.5q-18 0 -41 -8.5t-52.5 -25t-48 -27.5t-52.5 -33.5t-36 -24.5 q2 -29 2 -88v-535h127v-180h-360v715q0 106 -17.5 156.5t-78.5 50.5q-14 0 -35 -7.5t-39 -16.5t-44 -25.5t-41 -26.5t-38.5 -26.5t-28.5 -20.5v-619h123v-180h-485z" />
<glyph unicode="n" horiz-adv-x="1146" d="M39 0v180h127v723h-119v180h352v-147q252 168 359 168q66 0 111.5 -22.5t70.5 -54.5t38 -88t16 -103.5t3 -120.5v-535h127v-180h-360v715q0 106 -18.5 156.5t-77.5 50.5q-61 0 -269 -123v-619h125v-180h-485z" />
<glyph unicode="o" horiz-adv-x="1062" d="M104 293v498q0 166 102.5 239.5t324 73.5t324.5 -74t103 -239v-498q0 -166 -103 -239.5t-324.5 -73.5t-324 73.5t-102.5 239.5zM336 295q0 -145 194 -145q197 0 197 145v493q0 74 -45 110t-152 36q-104 0 -149 -36t-45 -110v-493z" />
<glyph unicode="p" horiz-adv-x="1091" d="M33 -262h127v1165h-119v180h352v-145q236 166 355 166q66 0 111.5 -22.5t70 -54.5t38 -88t16.5 -103.5t3 -120.5v-346q0 -74 -3 -121t-16.5 -103.5t-38 -88t-70.5 -54t-111 -22.5q-117 0 -355 118v-360h187v-180h-547v180zM393 233q180 -84 264 -83q59 0 78 50t19 156 v371q0 100 -18.5 147.5t-78.5 47.5q-47 0 -127.5 -40t-136.5 -81v-568z" />
<glyph unicode="q" d="M104 369v346q0 74 3.5 121t16.5 103t37.5 88t71 54.5t111.5 22.5q113 0 354 -166v145h234v-1345h123v-180h-547v180h190v360q-244 -119 -354 -118q-66 0 -112 22.5t-70.5 54t-37.5 88t-16.5 103.5t-3.5 121zM338 356q0 -106 17.5 -156t78.5 -50q78 0 264 83v568 q-176 121 -264 121q-61 0 -78.5 -46.5t-17.5 -148.5v-371z" />
<glyph unicode="r" horiz-adv-x="890" d="M39 0v180h127v719h-119v180h352v-155q160 137 232 166q35 14 61 14q104 0 134 -56.5t30 -213.5v-76h-194v76q-4 45 -15.5 66.5t-44.5 21.5q-14 0 -35.5 -10.5t-47 -29t-45 -33.5t-44 -35.5t-31.5 -27.5v-606h125v-180h-485z" />
<glyph unicode="s" horiz-adv-x="940" d="M55 45v283h197v-154q90 -23 184 -22q211 0 211 145q0 59 -59.5 94t-145.5 56.5t-171 50t-144 99.5t-59 181q0 326 409 326q156 0 367 -57v-283h-197v143q-80 25 -158 25q-193 0 -192 -129q0 -51 43 -86t107.5 -50.5t139.5 -40t139.5 -53t107.5 -93t43 -158.5 q0 -106 -35 -177t-99.5 -106t-133 -47t-160.5 -12q-185 -1 -394 65z" />
<glyph unicode="t" horiz-adv-x="690" d="M23 899v184h137v236h233v-236h240v-184h-240v-643q0 -84 70 -84q57 0 174 45l53 -176q-180 -61 -272 -61q-258 0 -258 272v647h-137z" />
<glyph unicode="u" horiz-adv-x="1126" d="M23 903v180h352v-727q0 -106 18.5 -156t77.5 -50q70 0 268 73v680h-118v180h352v-903h119v-180h-353v100q-242 -121 -358 -120q-66 0 -112 22.5t-70.5 54t-38 88t-16.5 103.5t-3 121v534h-118z" />
<glyph unicode="v" horiz-adv-x="1118" d="M31 903v180h450v-180h-86l164 -635l164 635h-82v180h449v-180h-129l-304 -911h-206l-293 911h-127z" />
<glyph unicode="w" horiz-adv-x="1595" d="M16 903v180h461v-180h-110l133 -624l188 813h211l201 -813l121 624h-105v180h463v-180h-129l-260 -911h-209l-188 784l-189 -784h-209l-260 911h-119z" />
<glyph unicode="x" horiz-adv-x="1038" d="M31 0v180h123l198 361l-182 362h-135v180h301l186 -424l172 424h287v-180h-111l-174 -362l193 -361h123v-180h-295l-195 426l-196 -426h-295z" />
<glyph unicode="y" horiz-adv-x="1083" d="M23 903v180h352v-727q0 -106 18.5 -156t77.5 -50q70 0 268 73v680h-118v180h352v-1214q0 -336 -293 -336q-135 0 -526 102l47 168q348 -86 430 -86q72 0 90 48.5t18 177.5v157q-242 -121 -358 -120q-66 0 -112 22.5t-70.5 54t-38 88t-16.5 103.5t-3 121v534h-118z" />
<glyph unicode="z" horiz-adv-x="903" d="M35 0v180l557 723h-338v-119h-197v299h774v-180l-544 -723h379v119h194v-299h-825z" />
<glyph unicode="{" horiz-adv-x="722" d="M86 516v170h10q158 6 158 246q0 20 -7 167.5t5 160.5q20 141 109.5 202.5t267.5 61.5v-156q-68 0 -109 -43t-41 -131q0 -39 6.5 -124t6.5 -138q0 -221 -132 -332q131 -111 132 -330q0 -53 -6.5 -138t-6.5 -124q0 -88 41 -131t109 -43v-156q-178 0 -267.5 61.5 t-109.5 203.5q-12 12 -5 160.5t7 166.5q0 246 -168 246z" />
<glyph unicode="|" horiz-adv-x="428" d="M113 -383v1935h217v-1935h-217z" />
<glyph unicode="}" horiz-adv-x="722" d="M86 -166q68 0 109 43t41 131q0 39 -6.5 124t-6.5 138q0 221 131 330q-131 109 -131 332q0 53 6.5 138t6.5 124q0 88 -41 131t-109 43v156q178 0 268 -61.5t111 -202.5q10 -20 3 -159.5t-7 -168.5q0 -240 155 -246h13v-170h-13q-156 -8 -155 -246q0 -29 7 -168t-3 -159 q-20 -141 -110.5 -203t-268.5 -62v156z" />
<glyph unicode="~" horiz-adv-x="1114" d="M76 469q47 106 117.5 169.5t148.5 76.5q88 14 211 -49.5t186 -63.5q33 0 59.5 24.5t63.5 84.5l170 -82q-43 -125 -127 -188.5t-180 -63.5q-80 0 -190.5 59.5t-161.5 59.5q-59 0 -119 -109z" />
<glyph unicode="&#xa1;" horiz-adv-x="417" d="M100 -426v1088h232v-1088h-232zM100 803v293h232v-293h-232z" />
<glyph unicode="&#xa2;" horiz-adv-x="798" d="M45 403v275q0 362 313 420v221h217v-219q94 -10 183 -35l-41 -199q-129 33 -215 33q-115 0 -170.5 -64.5t-55.5 -209.5v-168q0 -279 220 -279q63 0 221 37l41 -199q-106 -27 -183 -34v-205h-217v207q-166 25 -239.5 128t-73.5 291z" />
<glyph unicode="&#xa3;" horiz-adv-x="1071" d="M57 0v209q252 111 252 319q0 37 -10 103h-201v196h170q-14 111 -14 197v76q0 410 504 409q106 0 313 -43l-39 -194q-20 2 -79.5 10t-82 10t-82 6.5t-81.5 -2.5q-211 -12 -211 -196v-76q0 -94 20 -197h279v-196h-240q8 -70 8 -103q0 -115 -37 -190.5t-147 -128.5h704v-209 h-1026z" />
<glyph unicode="&#xa4;" horiz-adv-x="1325" d="M92 231l121 115q-72 123 -72 246q0 127 72 248q-43 39 -121 116l109 99q37 35 75 69l119 -112q129 74 267 73q141 0 268 -71q41 41 114 108l189 -172l-121 -110q70 -117 70 -246q0 -117 -74 -248l123 -115l-184 -172l-117 111q-123 -72 -271 -72q-137 0 -266 74 l-117 -111zM350 592q0 -117 92.5 -205t216.5 -88q129 0 220.5 86t91.5 209q0 121 -91.5 206t-217.5 85q-125 0 -218.5 -86t-93.5 -207z" />
<glyph unicode="&#xa5;" horiz-adv-x="1241" d="M20 1475h271l330 -668l329 668h273l-412 -760h276v-185h-344v-120h344v-187h-344v-223h-245v223h-340v187h340v120h-338v185h270z" />
<glyph unicode="&#xa6;" horiz-adv-x="428" d="M113 -383v815h217v-815h-217zM113 698v801h217v-801h-217z" />
<glyph unicode="&#xa7;" horiz-adv-x="829" d="M29 -59l43 178q168 -53 305 -53q184 0 184 127q0 51 -52 84.5t-127 60.5t-149.5 62.5t-127 109.5t-52.5 180q0 168 109 246q-109 90 -109 242q0 317 383 317q133 0 312 -47l-41 -178q-125 37 -256 37q-168 0 -168 -105q0 -43 37.5 -76.5t94 -52t122 -48.5t122 -64.5 t94.5 -100t38 -155.5q0 -166 -109 -250q109 -90 109 -238q0 -174 -115 -254t-287 -80q-113 0 -180 12.5t-180 45.5zM283 715q0 -37 28.5 -67t61.5 -45t96 -40q92 27 92 117q0 47 -40 76.5t-118 60.5q-120 -12 -120 -102z" />
<glyph unicode="&#xa8;" horiz-adv-x="856" d="M113 1208v293h231v-293h-231zM510 1208v293h231v-293h-231z" />
<glyph unicode="&#xa9;" horiz-adv-x="1681" d="M59 717q0 180 67 325.5t177.5 235.5t248.5 137t287.5 47t288 -47t250 -137t178 -235.5t66.5 -325.5t-66.5 -325.5t-178 -235.5t-250 -138.5t-288 -48.5t-287.5 48.5t-248.5 138.5t-177.5 235.5t-67 325.5zM211 717q0 -293 186.5 -457t442.5 -164t443 164t187 457 q0 291 -187 455.5t-443 164.5t-442.5 -163.5t-186.5 -456.5zM520 639v176q0 182 86 274.5t283 92.5q104 0 239 -49v-228h-155v121q-39 6 -84 6q-180 0 -180 -194v-220q0 -197 180 -196q100 0 233 27l21 -138q-147 -37 -254 -37q-197 0 -283 91.5t-86 273.5z" />
<glyph unicode="&#xaa;" horiz-adv-x="786" d="M37 913.5q0 104.5 31.5 165t128.5 74.5q100 14 288 -59v110q0 154 -127 154q-59 0 -118 -17v-100h-142v205q143 45 267 45q289 0 288 -289v-387h92v-131h-260v70q-147 -76 -221 -82q-37 -4 -67 2q-96 14 -128 74.5t-32 165zM209 913q0 -70 19.5 -105.5t74.5 -35.5t182 59 v177q-129 51 -182 51q-94 -1 -94 -146z" />
<glyph unicode="&#xab;" horiz-adv-x="1105" d="M49 563l416 471l156 -133l-283 -338l280 -334l-153 -135zM485 563l416 471l156 -133l-283 -338l281 -334l-154 -135z" />
<glyph unicode="&#xac;" horiz-adv-x="1171" d="M10 629v209h1049v-582h-215v373h-834z" />
<glyph unicode="&#xad;" horiz-adv-x="749" d="M106 510v192h539v-192h-539z" />
<glyph unicode="&#xae;" horiz-adv-x="1681" d="M59 717q0 180 67 325.5t177.5 235.5t248.5 137t287.5 47t288 -47t250 -137t178 -235.5t66.5 -325.5t-66.5 -325.5t-178 -235.5t-250 -138.5t-288 -48.5t-287.5 48.5t-248.5 138.5t-177.5 235.5t-67 325.5zM211 717q0 -293 186.5 -457t442.5 -164t443 164t187 457 q0 291 -187 455.5t-443 164.5t-442.5 -163.5t-186.5 -456.5zM467 291v145h102v584h-102v145h426q178 0 253 -60.5t75 -227.5q0 -119 -36 -181.5t-114 -87.5l92 -172h115v-145h-254l-141 297h-125v-297h-291zM758 735h135q76 0 103.5 32t27.5 109.5t-28.5 110.5t-102.5 33 h-135v-285z" />
<glyph unicode="&#xaf;" horiz-adv-x="796" d="M113 1210v174h573v-174h-573z" />
<glyph unicode="&#xb0;" horiz-adv-x="606" d="M53 1419q0 94 70 157.5t176.5 63.5t176 -63.5t69.5 -157.5q0 -96 -69.5 -159.5t-176 -63.5t-176.5 63.5t-70 159.5zM201 1419q0 -39 27.5 -66.5t70.5 -27.5t70.5 27.5t27.5 66.5t-27.5 64.5t-70.5 25.5t-70.5 -25.5t-27.5 -64.5z" />
<glyph unicode="&#xb1;" horiz-adv-x="1087" d="M14 592v209h418v395h217v-395h410v-209h-410v-397h-217v397h-418zM16 -104v213h1049v-213h-1049z" />
<glyph unicode="&#xb2;" horiz-adv-x="1009" d="M76 819v189q119 90 174 134t141 113.5t126 108.5t85 88t61.5 87t16.5 71q0 94 -44 129t-151 35q-100 0 -184 -31v-154h-199v287q184 78 383 78q217 0 328 -80t111 -268q0 -92 -77 -193.5t-149.5 -160t-255.5 -191.5q-47 -35 -71 -53h370v98h199v-287h-864z" />
<glyph unicode="&#xb3;" horiz-adv-x="995" d="M78 840v286h198v-127q88 -12 175 -12q238 0 237 131v64q0 127 -190 127h-109l-2 176h94q190 0 191 121v36q0 68 -48.5 99t-181.5 31q-57 0 -149 -17v-153h-199v286q182 68 359 68q225 0 337.5 -69.5t112.5 -244.5v-36q0 -84 -34.5 -131.5t-123.5 -71.5 q86 -14 133.5 -74.5t47.5 -146.5v-64q0 -315 -475 -315q-133 0 -373 37z" />
<glyph unicode="&#xb4;" horiz-adv-x="563" d="M154 1208l252 430h290l-323 -430h-219z" />
<glyph unicode="&#xb5;" horiz-adv-x="1126" d="M23 903v180h352v-727q0 -106 18.5 -156t77.5 -50q70 0 268 73v680h-118v180h352v-903h119v-180h-353v100q-242 -121 -358 -120h-6v-449h-234v1372h-118z" />
<glyph unicode="&#x3bc;" horiz-adv-x="1126" d="M23 903v180h352v-727q0 -106 18.5 -156t77.5 -50q70 0 268 73v680h-118v180h352v-903h119v-180h-353v100q-242 -121 -358 -120h-6v-449h-234v1372h-118z" />
<glyph unicode="&#xb6;" horiz-adv-x="1228" d="M35 1049q0 188 127 306t332 118h532v-1516h133v-180h-348v1515h-149v-1515h-347v180h134v674q-188 16 -301 129t-113 289z" />
<glyph unicode="&#xb7;" horiz-adv-x="546" d="M143 438v295h232v-295h-232z" />
<glyph unicode="&#xb8;" horiz-adv-x="610" d="M47 -408l47 89q41 -18 100.5 -23.5t111.5 16t52 76.5q0 41 -29.5 63.5t-62.5 26.5t-86 6l103 193h106l-74 -125q82 -4 149.5 -46t67.5 -114q0 -76 -51 -124t-128 -61t-158.5 -7.5t-147.5 30.5z" />
<glyph unicode="&#xb9;" horiz-adv-x="507" d="M66 819v172h79v746h-79v200h315v-946h80v-172h-395z" />
<glyph unicode="&#xba;" horiz-adv-x="606" d="M53 1419q0 94 70 157.5t176.5 63.5t176 -63.5t69.5 -157.5q0 -96 -69.5 -159.5t-176 -63.5t-176.5 63.5t-70 159.5zM201 1419q0 -39 27.5 -66.5t70.5 -27.5t70.5 27.5t27.5 66.5t-27.5 64.5t-70.5 25.5t-70.5 -25.5t-27.5 -64.5z" />
<glyph unicode="&#xbb;" horiz-adv-x="1105" d="M49 901l156 133l416 -471l-416 -469l-154 135l283 334zM485 901l156 133l416 -471l-416 -469l-154 135l283 334z" />
<glyph unicode="&#xbc;" horiz-adv-x="2312" d="M59 356v172h80v746h-80v201h316v-947h80v-172h-396zM535 -20l639 1515h249l-639 -1515h-249zM1296 258v174l549 686h283l-561 -686h280v227h226v-227h139v-174h-139v-86h84v-172h-396v172h86v86h-551z" />
<glyph unicode="&#xbd;" horiz-adv-x="2312" d="M59 356v172h80v746h-80v201h316v-947h80v-172h-396zM541 -20l633 1515h249l-635 -1515h-247zM1407 0v188q119 90 174 134.5t141 114t126 108.5t85 88t61.5 87t16.5 71q0 94 -44 128.5t-150 34.5q-100 0 -185 -30v-154h-198v287q184 78 383 78q217 0 327.5 -80t110.5 -269 q0 -92 -77 -193t-149.5 -159.5t-254.5 -191.5q-47 -35 -72 -54h371v99h198v-287h-864z" />
<glyph unicode="&#xbe;" horiz-adv-x="2598" d="M43 377v287h199v-127q90 -12 174 -13q238 0 237 131v64q0 127 -190 127h-109l-2 176h94q190 0 191 121v37q0 68 -48 98.5t-181 30.5q-57 0 -150 -17v-153h-199v286q182 68 359 68q225 0 337.5 -69.5t112.5 -243.5v-37q0 -84 -34.5 -131t-122.5 -72q86 -14 133 -74.5 t47 -146.5v-64q0 -315 -475 -315q-133 0 -373 37zM879 -20l637 1515h249l-639 -1515h-247zM1628 258v174l549 686h283l-562 -686h281v227h225v-227h140v-174h-140v-86h84v-172h-395v172h86v86h-551z" />
<glyph unicode="&#xbf;" horiz-adv-x="878" d="M-121 -31q0 74 37 144.5t89 127t104.5 111t89.5 115.5t37 121v117h229v-117q0 -90 -53.5 -182.5t-118 -156t-117.5 -140t-53 -140.5q0 -111 51 -154.5t148 -43.5q102 0 192 26v199h209v-330q-207 -84 -389 -84q-102 0 -179 16.5t-142.5 57.5t-99.5 119.5t-34 193.5z M236 827v256h229v-256h-229z" />
<glyph unicode="&#xc0;" horiz-adv-x="1474" d="M10 0v180h146l407 1112h-143v181h422l475 -1293h147v-180h-516v180h115l-80 246h-494l-77 -246h114v-180h-516zM293 1911l280 37l261 -351l-203 -22zM549 610h375l-187 584z" />
<glyph unicode="&#xc1;" horiz-adv-x="1474" d="M10 0v180h146l407 1112h-143v181h422l475 -1293h147v-180h-516v180h115l-80 246h-494l-77 -246h114v-180h-516zM549 610h375l-187 584zM623 1577l251 430h291l-323 -430h-219z" />
<glyph unicode="&#xc2;" horiz-adv-x="1474" d="M10 0v180h146l407 1112h-143v181h422l475 -1293h147v-180h-516v180h115l-80 246h-494l-77 -246h114v-180h-516zM406 1628l333 307l332 -307l-59 -72l-273 140l-274 -140zM549 610h375l-187 584z" />
<glyph unicode="&#xc3;" horiz-adv-x="1474" d="M10 0v180h146l407 1112h-143v181h422l475 -1293h147v-180h-516v180h115l-80 246h-494l-77 -246h114v-180h-516zM399 1626q55 141 181 170q72 12 148.5 -25.5t133.5 -35.5q49 -2 94 67l127 -49q-31 -78 -81 -124t-103 -58q-72 -12 -148.5 25.5t-134.5 35.5q-47 0 -90 -67z M549 610h375l-187 584z" />
<glyph unicode="&#xc4;" horiz-adv-x="1474" d="M10 0v180h146l407 1112h-143v181h422l475 -1293h147v-180h-516v180h115l-80 246h-494l-77 -246h114v-180h-516zM422 1577v293h231v-293h-231zM549 610h375l-187 584zM819 1577v293h232v-293h-232z" />
<glyph unicode="&#xc5;" horiz-adv-x="1474" d="M10 0v180h146l407 1112h-143v181h422l475 -1293h147v-180h-516v180h115l-80 246h-494l-77 -246h114v-180h-516zM492 1788q0 94 69.5 157.5t176 63.5t176 -63.5t69.5 -157.5q0 -96 -69.5 -159.5t-176 -63.5t-176 63.5t-69.5 159.5zM549 610h375l-187 584zM639 1788 q0 -39 27.5 -66.5t70.5 -27.5t71 27.5t28 66.5t-28 64.5t-71 25.5t-70.5 -25.5t-27.5 -64.5z" />
<glyph unicode="&#xc6;" horiz-adv-x="2183" d="M10 0v180h144l731 1112h-137v181h1374v-330h-207v149h-477v-444h440v-180h-440v-488h477v150h207v-330h-1078v180h148v246h-631l-153 -246h118v-180h-516zM678 610h514v682h-88z" />
<glyph unicode="&#xc7;" horiz-adv-x="1224" d="M98 535v403q0 307 143.5 432t456.5 125h62q223 0 354 -74v-331h-209v190q-72 16 -145 16h-62q-203 0 -274.5 -78.5t-71.5 -279.5v-403q0 -199 72 -279t274 -80h62q141 0 319 64l47 -195q-184 -66 -366 -65h-12l-37 -64q82 -4 149.5 -46t67.5 -114q0 -76 -51.5 -124 t-128 -61t-158.5 -7t-148 30l47 89q41 -18 100.5 -23.5t112 16t52.5 76.5q0 41 -30 63.5t-62.5 26.5t-86.5 6l70 134q-285 10 -416 135t-131 418z" />
<glyph unicode="&#xc8;" horiz-adv-x="1191" d="M53 0v180h148v1112h-148v181h1077v-330h-206v149h-478v-444h441v-180h-441v-488h478v150h206v-330h-1077zM238 1911l280 37l260 -351l-203 -22z" />
<glyph unicode="&#xc9;" horiz-adv-x="1191" d="M53 0v180h148v1112h-148v181h1077v-330h-206v149h-478v-444h441v-180h-441v-488h478v150h206v-330h-1077zM569 1577l252 430h291l-324 -430h-219z" />
<glyph unicode="&#xca;" horiz-adv-x="1191" d="M53 0v180h148v1112h-148v181h1077v-330h-206v149h-478v-444h441v-180h-441v-488h478v150h206v-330h-1077zM350 1628l334 307l332 -307l-60 -72l-272 140l-274 -140z" />
<glyph unicode="&#xcb;" horiz-adv-x="1191" d="M53 0v180h148v1112h-148v181h1077v-330h-206v149h-478v-444h441v-180h-441v-488h478v150h206v-330h-1077zM367 1577v293h231v-293h-231zM764 1577v293h231v-293h-231z" />
<glyph unicode="&#xcc;" horiz-adv-x="645" d="M-123 1911l281 37l260 -351l-203 -22zM53 0v180h148v1112h-148v181h539v-181h-146v-1112h146v-180h-539z" />
<glyph unicode="&#xcd;" horiz-adv-x="645" d="M53 0v180h148v1112h-148v181h539v-181h-146v-1112h146v-180h-539zM207 1577l252 430h291l-324 -430h-219z" />
<glyph unicode="&#xce;" horiz-adv-x="645" d="M-12 1628l334 307l331 -307l-59 -72l-272 140l-275 -140zM53 0v180h148v1112h-148v181h539v-181h-146v-1112h146v-180h-539z" />
<glyph unicode="&#xcf;" horiz-adv-x="645" d="M6 1577v293h232v-293h-232zM53 0v180h148v1112h-148v181h539v-181h-146v-1112h146v-180h-539zM403 1577v293h232v-293h-232z" />
<glyph unicode="&#xd0;" horiz-adv-x="1382" d="M53 0v180h148v443h-133v219h133v450h-148v181h707q176 0 286.5 -31t170 -103.5t81 -167t21.5 -245.5v-379q0 -311 -116 -429t-443 -118h-707zM446 180h277q205 0 273.5 85t68.5 282v379q0 197 -68.5 281.5t-273.5 84.5h-277v-450h213v-219h-213v-443z" />
<glyph unicode="&#xd1;" horiz-adv-x="1492" d="M53 0v180h148v1112h-148v181h393l627 -1098v917h-147v181h542v-181h-149v-1292h-246l-627 1081v-901h148v-180h-541zM414 1626q55 141 180 170q72 12 148.5 -25.5t134.5 -35.5q49 -2 94 67l127 -49q-31 -78 -81 -124t-104 -58q-72 -12 -148.5 25.5t-133.5 35.5 q-47 0 -90 -67z" />
<glyph unicode="&#xd2;" horiz-adv-x="1398" d="M98 535v403q0 307 139.5 432t448.5 125h27q307 0 447 -125t140 -432v-403q0 -305 -140 -430t-447 -125h-27q-307 0 -447.5 125t-140.5 430zM254 1911l281 37l260 -351l-203 -22zM352 535q0 -199 71 -281t263 -82h27q193 0 263.5 82t70.5 281v403q0 201 -69 281.5 t-265 80.5h-27q-197 0 -265.5 -80.5t-68.5 -281.5v-403z" />
<glyph unicode="&#xd3;" horiz-adv-x="1398" d="M98 535v403q0 307 139.5 432t448.5 125h27q307 0 447 -125t140 -432v-403q0 -305 -140 -430t-447 -125h-27q-307 0 -447.5 125t-140.5 430zM352 535q0 -199 71 -281t263 -82h27q193 0 263.5 82t70.5 281v403q0 201 -69 281.5t-265 80.5h-27q-197 0 -265.5 -80.5 t-68.5 -281.5v-403zM586 1577l252 430h290l-323 -430h-219z" />
<glyph unicode="&#xd4;" horiz-adv-x="1398" d="M98 535v403q0 307 139.5 432t448.5 125h27q307 0 447 -125t140 -432v-403q0 -305 -140 -430t-447 -125h-27q-307 0 -447.5 125t-140.5 430zM352 535q0 -199 71 -281t263 -82h27q193 0 263.5 82t70.5 281v403q0 201 -69 281.5t-265 80.5h-27q-197 0 -265.5 -80.5 t-68.5 -281.5v-403zM367 1628l333 307l332 -307l-59 -72l-273 140l-274 -140z" />
<glyph unicode="&#xd5;" horiz-adv-x="1398" d="M98 535v403q0 307 139.5 432t448.5 125h27q307 0 447 -125t140 -432v-403q0 -305 -140 -430t-447 -125h-27q-307 0 -447.5 125t-140.5 430zM352 535q0 -199 71 -281t263 -82h27q193 0 263.5 82t70.5 281v403q0 201 -69 281.5t-265 80.5h-27q-197 0 -265.5 -80.5 t-68.5 -281.5v-403zM362 1626q55 141 181 170q72 12 148.5 -25.5t133.5 -35.5q49 -2 95 67l127 -49q-31 -78 -81.5 -124t-103.5 -58q-72 -12 -148.5 25.5t-133.5 35.5q-47 0 -91 -67z" />
<glyph unicode="&#xd6;" horiz-adv-x="1398" d="M98 535v403q0 307 139.5 432t448.5 125h27q307 0 447 -125t140 -432v-403q0 -305 -140 -430t-447 -125h-27q-307 0 -447.5 125t-140.5 430zM352 535q0 -199 71 -281t263 -82h27q193 0 263.5 82t70.5 281v403q0 201 -69 281.5t-265 80.5h-27q-197 0 -265.5 -80.5 t-68.5 -281.5v-403zM383 1577v293h231v-293h-231zM780 1577v293h232v-293h-232z" />
<glyph unicode="&#xd7;" horiz-adv-x="1210" d="M82 197l371 346l-367 352l145 139l373 -352l375 350l147 -137l-370 -350l370 -350l-153 -136l-369 349l-373 -351z" />
<glyph unicode="&#xd8;" horiz-adv-x="1470" d="M84 535v403q0 307 139 432t449 125h26q96 0 181 -12l32 78h238l-62 -148q199 -119 199 -475v-403q0 -305 -140 -430t-448 -125h-26q-96 0 -176 12l-35 -88h-236l64 153q-205 120 -205 478zM338 535q0 -166 45 -248l418 1007q-47 6 -103 6h-26q-197 0 -265.5 -80.5 t-68.5 -281.5v-403zM573 178q43 -6 99 -6h26q193 0 263.5 82t70.5 281v403q0 162 -43 242z" />
<glyph unicode="&#xd9;" horiz-adv-x="1431" d="M14 1292v181h539v-181h-145v-741q0 -201 63.5 -282t237.5 -81h16q174 0 237.5 82t63.5 281v741h-145v181h536v-181h-145v-741q0 -315 -130 -444.5t-417 -129.5h-16q-287 0 -417 129.5t-130 444.5v741h-148zM268 1911l281 37l260 -351l-203 -22z" />
<glyph unicode="&#xda;" horiz-adv-x="1431" d="M14 1292v181h539v-181h-145v-741q0 -201 63.5 -282t237.5 -81h16q174 0 237.5 82t63.5 281v741h-145v181h536v-181h-145v-741q0 -315 -130 -444.5t-417 -129.5h-16q-287 0 -417 129.5t-130 444.5v741h-148zM598 1577l252 430h291l-324 -430h-219z" />
<glyph unicode="&#xdb;" horiz-adv-x="1431" d="M14 1292v181h539v-181h-145v-741q0 -201 63.5 -282t237.5 -81h16q174 0 237.5 82t63.5 281v741h-145v181h536v-181h-145v-741q0 -315 -130 -444.5t-417 -129.5h-16q-287 0 -417 129.5t-130 444.5v741h-148zM381 1628l334 307l332 -307l-60 -72l-272 140l-275 -140z" />
<glyph unicode="&#xdc;" horiz-adv-x="1431" d="M14 1292v181h539v-181h-145v-741q0 -201 63.5 -282t237.5 -81h16q174 0 237.5 82t63.5 281v741h-145v181h536v-181h-145v-741q0 -315 -130 -444.5t-417 -129.5h-16q-287 0 -417 129.5t-130 444.5v741h-148zM397 1577v293h232v-293h-232zM795 1577v293h231v-293h-231z" />
<glyph unicode="&#xdd;" horiz-adv-x="1347" d="M14 1292v181h539v-181h-133l254 -536l252 536h-131v181h538v-181h-153l-383 -727v-385h147v-180h-541v180h148v385l-389 727h-148zM559 1577l252 430h291l-324 -430h-219z" />
<glyph unicode="&#xde;" horiz-adv-x="1234" d="M31 0v180h147v1112h-147v181h538v-181h-145v-149h264q145 0 234.5 -14.5t160 -55.5t101 -121t30.5 -209q0 -131 -30.5 -212.5t-102 -123.5t-159.5 -56.5t-234 -14.5h-264v-156h145v-180h-538zM424 518h264q162 0 216 44t54 181q0 133 -54 175.5t-216 42.5h-264v-443z" />
<glyph unicode="&#xdf;" horiz-adv-x="1271" d="M39 0v180h123v991q0 180 129 278.5t338 98.5q201 0 335 -88t134 -227q0 -303 -285 -303q-111 0 -111 -119q0 -51 56.5 -87t136.5 -62.5t160 -61.5t136 -107.5t56 -179.5q0 -102 -35.5 -170.5t-101.5 -102.5t-136.5 -47t-164.5 -13q-113 0 -180.5 12t-179.5 45v282h196 v-149q80 -18 152 -18q221 0 221 137q0 51 -56.5 85t-136.5 60.5t-159.5 62t-136 109.5t-56.5 180q0 317 277 318q119 0 118 129q0 20 -8 39.5t-29.5 42t-71.5 37t-124 14.5q-147 0 -195.5 -53t-48.5 -142v-1171h-352z" />
<glyph unicode="&#xe0;" d="M66 315.5q0 143.5 44 225.5t175 102q63 8 142 -5t125 -29.5t126 -47.5v152q0 111 -42 160t-132 49q-76 0 -162 -21v-137h-195v280q190 59 367 60q207 0 301 -100.5t94 -292.5v-531h127v-180h-358v94q-197 -102 -301 -110q-37 -6 -92 2q-131 20 -175 103t-44 226.5z M76 1542l280 37l260 -350l-202 -23zM299 315q0 -94 27.5 -144t101.5 -50q78 0 250 80v243q-174 68 -250 68q-129 0 -129 -197z" />
<glyph unicode="&#xe1;" d="M66 315.5q0 143.5 44 225.5t175 102q63 8 142 -5t125 -29.5t126 -47.5v152q0 111 -42 160t-132 49q-76 0 -162 -21v-137h-195v280q190 59 367 60q207 0 301 -100.5t94 -292.5v-531h127v-180h-358v94q-197 -102 -301 -110q-37 -6 -92 2q-131 20 -175 103t-44 226.5z M299 315q0 -94 27.5 -144t101.5 -50q78 0 250 80v243q-174 68 -250 68q-129 0 -129 -197zM406 1208l251 430h291l-323 -430h-219z" />
<glyph unicode="&#xe2;" d="M66 315.5q0 143.5 44 225.5t175 102q63 8 142 -5t125 -29.5t126 -47.5v152q0 111 -42 160t-132 49q-76 0 -162 -21v-137h-195v280q190 59 367 60q207 0 301 -100.5t94 -292.5v-531h127v-180h-358v94q-197 -102 -301 -110q-37 -6 -92 2q-131 20 -175 103t-44 226.5z M186 1260l334 307l332 -307l-59 -72l-273 139l-274 -139zM299 315q0 -94 27.5 -144t101.5 -50q78 0 250 80v243q-174 68 -250 68q-129 0 -129 -197z" />
<glyph unicode="&#xe3;" d="M66 315.5q0 143.5 44 225.5t175 102q63 8 142 -5t125 -29.5t126 -47.5v152q0 111 -42 160t-132 49q-76 0 -162 -21v-137h-195v280q190 59 367 60q207 0 301 -100.5t94 -292.5v-531h127v-180h-358v94q-197 -102 -301 -110q-37 -6 -92 2q-131 20 -175 103t-44 226.5z M182 1257q55 141 180 170q72 12 149 -25.5t134 -35.5q49 -2 94 68l127 -50q-31 -78 -81 -124t-103 -58q-72 -12 -148.5 26t-134.5 36q-47 0 -90 -68zM299 315q0 -94 27.5 -144t101.5 -50q78 0 250 80v243q-174 68 -250 68q-129 0 -129 -197z" />
<glyph unicode="&#xe4;" d="M66 315.5q0 143.5 44 225.5t175 102q63 8 142 -5t125 -29.5t126 -47.5v152q0 111 -42 160t-132 49q-76 0 -162 -21v-137h-195v280q190 59 367 60q207 0 301 -100.5t94 -292.5v-531h127v-180h-358v94q-197 -102 -301 -110q-37 -6 -92 2q-131 20 -175 103t-44 226.5z M205 1208v293h231v-293h-231zM299 315q0 -94 27.5 -144t101.5 -50q78 0 250 80v243q-174 68 -250 68q-129 0 -129 -197zM602 1208v293h232v-293h-232z" />
<glyph unicode="&#xe5;" d="M66 315.5q0 143.5 44 225.5t175 102q63 8 142 -5t125 -29.5t126 -47.5v152q0 111 -42 160t-132 49q-76 0 -162 -21v-137h-195v280q190 59 367 60q207 0 301 -100.5t94 -292.5v-531h127v-180h-358v94q-197 -102 -301 -110q-37 -6 -92 2q-131 20 -175 103t-44 226.5z M274 1419q0 94 70 157.5t176.5 63.5t176 -63.5t69.5 -157.5q0 -96 -69.5 -159.5t-176 -63.5t-176.5 63.5t-70 159.5zM299 315q0 -94 27.5 -144t101.5 -50q78 0 250 80v243q-174 68 -250 68q-129 0 -129 -197zM422 1419q0 -39 27.5 -66.5t70.5 -27.5t70.5 27.5t27.5 66.5 t-27.5 64.5t-70.5 25.5t-70.5 -25.5t-27.5 -64.5z" />
<glyph unicode="&#xe6;" horiz-adv-x="1566" d="M51 328q0 74 8.5 124t35 100t85 74.5t146.5 24.5q156 0 325 -73v135q0 115 -48 162t-150 45q-102 -4 -277 -43l-43 167q186 59 356 60q193 0 287 -88q104 88 361 88q209 0 282.5 -84t73.5 -234v-131q0 -199 -606 -206v-48q0 -242 225 -241q168 0 338 59l43 -168 q-195 -76 -381 -76q-195 0 -303 74q-147 -68 -461 -67q-96 0 -158.5 26.5t-91 79.5t-38 106.5t-9.5 133.5zM285 322q0 -92 25.5 -141.5t92.5 -49.5q92 0 170 12.5t78 32.5v266q0 23 -87 41.5t-161 18.5q-68 0 -93 -45t-25 -135zM887 567q375 18 375 117v96q0 74 -19.5 114 t-81.5 40q-137 0 -205.5 -44t-68.5 -159v-164z" />
<glyph unicode="&#xe7;" horiz-adv-x="968" d="M104 432v219q0 227 106.5 340t350.5 113q133 0 299 -60v-282h-194v149q-66 8 -105 9q-125 0 -174 -64.5t-49 -177.5v-272q0 -113 49 -177.5t174 -64.5q129 0 291 31l27 -168q-158 -43 -297 -47l-41 -70q82 -4 149.5 -46t67.5 -114q0 -76 -51.5 -124t-128 -61.5t-158.5 -7 t-148 30.5l47 88q41 -18 100.5 -23t112 16.5t52.5 76.5q0 41 -30 63.5t-62.5 26.5t-85.5 6l73 142q-199 18 -287 129.5t-88 318.5z" />
<glyph unicode="&#xe8;" horiz-adv-x="1017" d="M98 1538l281 37l260 -350l-203 -23zM104 432v238q0 117 18.5 194.5t50.5 125.5t95.5 72.5t133 33t184.5 8.5q201 0 272.5 -81t71.5 -224v-144q0 -59 -43 -100t-180.5 -72.5t-368.5 -33.5v-43q0 -242 223 -242q174 0 338 57l43 -168q-190 -74 -381 -73 q-246 0 -351.5 111.5t-105.5 340.5zM338 567q373 18 373 111v102q0 74 -19.5 114t-81.5 40q-143 0 -207.5 -38t-64.5 -165v-164z" />
<glyph unicode="&#xe9;" horiz-adv-x="1017" d="M104 432v238q0 117 18.5 194.5t50.5 125.5t95.5 72.5t133 33t184.5 8.5q201 0 272.5 -81t71.5 -224v-144q0 -59 -43 -100t-180.5 -72.5t-368.5 -33.5v-43q0 -242 223 -242q174 0 338 57l43 -168q-190 -74 -381 -73q-246 0 -351.5 111.5t-105.5 340.5zM338 567 q373 18 373 111v102q0 74 -19.5 114t-81.5 40q-143 0 -207.5 -38t-64.5 -165v-164zM428 1204l252 430h291l-324 -430h-219z" />
<glyph unicode="&#xea;" horiz-adv-x="1017" d="M104 432v238q0 117 18.5 194.5t50.5 125.5t95.5 72.5t133 33t184.5 8.5q201 0 272.5 -81t71.5 -224v-144q0 -59 -43 -100t-180.5 -72.5t-368.5 -33.5v-43q0 -242 223 -242q174 0 338 57l43 -168q-190 -74 -381 -73q-246 0 -351.5 111.5t-105.5 340.5zM209 1255l334 308 l331 -308l-59 -71l-272 139l-275 -139zM338 567q373 18 373 111v102q0 74 -19.5 114t-81.5 40q-143 0 -207.5 -38t-64.5 -165v-164z" />
<glyph unicode="&#xeb;" horiz-adv-x="1017" d="M104 432v238q0 117 18.5 194.5t50.5 125.5t95.5 72.5t133 33t184.5 8.5q201 0 272.5 -81t71.5 -224v-144q0 -59 -43 -100t-180.5 -72.5t-368.5 -33.5v-43q0 -242 223 -242q174 0 338 57l43 -168q-190 -74 -381 -73q-246 0 -351.5 111.5t-105.5 340.5zM227 1204v293h232 v-293h-232zM338 567q373 18 373 111v102q0 74 -19.5 114t-81.5 40q-143 0 -207.5 -38t-64.5 -165v-164zM625 1204v293h231v-293h-231z" />
<glyph unicode="&#xec;" horiz-adv-x="546" d="M-147 1542l280 37l260 -350l-203 -23zM39 0v180h129v723h-123v180h354v-903h125v-180h-485z" />
<glyph unicode="&#xed;" horiz-adv-x="546" d="M39 0v180h129v723h-123v180h354v-903h125v-180h-485zM188 1208l252 430h291l-323 -430h-220z" />
<glyph unicode="&#xee;" horiz-adv-x="546" d="M-59 1260l333 307l332 -307l-59 -72l-273 139l-274 -139zM39 0v180h129v723h-123v180h354v-903h125v-180h-485z" />
<glyph unicode="&#xef;" horiz-adv-x="546" d="M-41 1208v293h231v-293h-231zM39 0v180h129v723h-123v180h354v-903h125v-180h-485zM356 1208v293h232v-293h-232z" />
<glyph unicode="&#xf0;" horiz-adv-x="1310" d="M115 449v55q0 246 119.5 358.5t367.5 112.5h14q186 0 351 -90q-135 209 -381 332l-62 -134l-143 62l59 133q-70 25 -143 43l57 176q90 -23 164 -49l62 133l143 -61l-59 -129q567 -254 585 -865q2 -8 2 -22v-55q0 -244 -137 -356.5t-424 -112.5h-14q-287 0 -424 112.5 t-137 356.5zM358 451q0 -137 68 -208t250 -71h14q182 0 250 70.5t68 208.5v51q0 141 -68 210.5t-250 69.5h-14q-182 0 -250 -69.5t-68 -210.5v-51z" />
<glyph unicode="&#xf1;" horiz-adv-x="1146" d="M39 0v180h127v723h-119v180h352v-147q252 168 359 168q66 0 111.5 -22.5t70.5 -54.5t38 -88t16 -103.5t3 -120.5v-535h127v-180h-360v715q0 106 -18.5 156.5t-77.5 50.5q-61 0 -269 -123v-619h125v-180h-485zM287 1253q55 141 180 170q72 12 148.5 -25.5t134.5 -35.5 q49 -2 94 68l127 -50q-31 -78 -81 -124t-104 -58q-72 -12 -148.5 26t-133.5 36q-47 0 -90 -68z" />
<glyph unicode="&#xf2;" horiz-adv-x="1062" d="M86 1538l281 37l260 -350l-203 -23zM104 293v498q0 166 102.5 239.5t324 73.5t324.5 -74t103 -239v-498q0 -166 -103 -239.5t-324.5 -73.5t-324 73.5t-102.5 239.5zM336 295q0 -145 194 -145q197 0 197 145v493q0 74 -45 110t-152 36q-104 0 -149 -36t-45 -110v-493z" />
<glyph unicode="&#xf3;" horiz-adv-x="1062" d="M104 293v498q0 166 102.5 239.5t324 73.5t324.5 -74t103 -239v-498q0 -166 -103 -239.5t-324.5 -73.5t-324 73.5t-102.5 239.5zM336 295q0 -145 194 -145q197 0 197 145v493q0 74 -45 110t-152 36q-104 0 -149 -36t-45 -110v-493zM418 1204l252 430h291l-324 -430h-219z " />
<glyph unicode="&#xf4;" horiz-adv-x="1062" d="M104 293v498q0 166 102.5 239.5t324 73.5t324.5 -74t103 -239v-498q0 -166 -103 -239.5t-324.5 -73.5t-324 73.5t-102.5 239.5zM199 1255l333 308l332 -308l-59 -71l-273 139l-274 -139zM336 295q0 -145 194 -145q197 0 197 145v493q0 74 -45 110t-152 36 q-104 0 -149 -36t-45 -110v-493z" />
<glyph unicode="&#xf5;" horiz-adv-x="1062" d="M104 293v498q0 166 102.5 239.5t324 73.5t324.5 -74t103 -239v-498q0 -166 -103 -239.5t-324.5 -73.5t-324 73.5t-102.5 239.5zM195 1253q55 141 180 170q72 12 148.5 -25.5t133.5 -35.5q49 -2 95 68l127 -50q-31 -78 -81 -124t-104 -58q-72 -12 -148.5 26t-133.5 36 q-47 0 -90 -68zM336 295q0 -145 194 -145q197 0 197 145v493q0 74 -45 110t-152 36q-104 0 -149 -36t-45 -110v-493z" />
<glyph unicode="&#xf6;" horiz-adv-x="1062" d="M104 293v498q0 166 102.5 239.5t324 73.5t324.5 -74t103 -239v-498q0 -166 -103 -239.5t-324.5 -73.5t-324 73.5t-102.5 239.5zM215 1204v293h231v-293h-231zM336 295q0 -145 194 -145q197 0 197 145v493q0 74 -45 110t-152 36q-104 0 -149 -36t-45 -110v-493zM612 1204 v293h232v-293h-232z" />
<glyph unicode="&#xf7;" horiz-adv-x="903" d="M51 477v221h803v-221h-803zM332 0v293h231v-293h-231zM332 870v295h231v-295h-231z" />
<glyph unicode="&#xf8;" horiz-adv-x="1036" d="M90 -113l94 174q-94 80 -94 244v473q0 172 103.5 249t324.5 77q125 0 213 -25l70 129h145l-100 -184q98 -80 98 -246v-473q0 -172 -102.5 -248.5t-323.5 -76.5q-129 0 -219 24l-63 -117h-146zM322 317l319 594q-49 23 -123 23q-104 0 -150 -39t-46 -119v-459zM391 174 q47 -25 127 -24q195 0 195 157v467z" />
<glyph unicode="&#xf9;" horiz-adv-x="1126" d="M23 903v180h352v-727q0 -106 18.5 -156t77.5 -50q70 0 268 73v680h-118v180h352v-903h119v-180h-353v100q-242 -121 -358 -120q-66 0 -112 22.5t-70.5 54t-38 88t-16.5 103.5t-3 121v534h-118zM76 1538l280 37l260 -350l-202 -23z" />
<glyph unicode="&#xfa;" horiz-adv-x="1126" d="M23 903v180h352v-727q0 -106 18.5 -156t77.5 -50q70 0 268 73v680h-118v180h352v-903h119v-180h-353v100q-242 -121 -358 -120q-66 0 -112 22.5t-70.5 54t-38 88t-16.5 103.5t-3 121v534h-118zM406 1204l251 430h291l-323 -430h-219z" />
<glyph unicode="&#xfb;" horiz-adv-x="1126" d="M23 903v180h352v-727q0 -106 18.5 -156t77.5 -50q70 0 268 73v680h-118v180h352v-903h119v-180h-353v100q-242 -121 -358 -120q-66 0 -112 22.5t-70.5 54t-38 88t-16.5 103.5t-3 121v534h-118zM201 1255l334 308l331 -308l-59 -71l-272 139l-275 -139z" />
<glyph unicode="&#xfc;" horiz-adv-x="1126" d="M23 903v180h352v-727q0 -106 18.5 -156t77.5 -50q70 0 268 73v680h-118v180h352v-903h119v-180h-353v100q-242 -121 -358 -120q-66 0 -112 22.5t-70.5 54t-38 88t-16.5 103.5t-3 121v534h-118zM217 1204v293h232v-293h-232zM614 1204v293h232v-293h-232z" />
<glyph unicode="&#xfd;" horiz-adv-x="1083" d="M23 903v180h352v-727q0 -106 18.5 -156t77.5 -50q70 0 268 73v680h-118v180h352v-1214q0 -336 -293 -336q-135 0 -526 102l47 168q348 -86 430 -86q72 0 90 48.5t18 177.5v157q-242 -121 -358 -120q-66 0 -112 22.5t-70.5 54t-38 88t-16.5 103.5t-3 121v534h-118z M395 1204l252 430h291l-324 -430h-219z" />
<glyph unicode="&#xfe;" horiz-adv-x="1103" d="M33 -262h127v1554h-127v181h547v-181h-187v-358q141 117 342 117q72 0 123 -21.5t78 -52.5t42 -85t18 -100.5t3 -117.5v-318q0 -72 -3 -117.5t-18 -100t-42 -85t-78 -52t-123 -21.5q-201 0 -342 116v-358h187v-180h-547v180zM393 223q78 -74 277 -73q35 0 55 14t28.5 48 t10.5 62.5t2 81.5v318q0 53 -2 81.5t-10.5 62.5t-28.5 48.5t-55 14.5q-199 0 -277 -74v-584z" />
<glyph unicode="&#xff;" horiz-adv-x="1083" d="M23 903v180h352v-727q0 -106 18.5 -156t77.5 -50q70 0 268 73v680h-118v180h352v-1214q0 -336 -293 -336q-135 0 -526 102l47 168q348 -86 430 -86q72 0 90 48.5t18 177.5v157q-242 -121 -358 -120q-66 0 -112 22.5t-70.5 54t-38 88t-16.5 103.5t-3 121v534h-118z M211 1204v293h231v-293h-231zM608 1204v293h232v-293h-232z" />
<glyph unicode="&#x152;" horiz-adv-x="2048" d="M98 535v403q0 307 139.5 432t448.5 125h27q215 0 342 -57v35h932v-330h-209v149h-478v-444h443v-180h-443v-488h478v150h209v-330h-932v35q-129 -55 -342 -55h-27q-307 0 -447.5 125t-140.5 430zM352 535q0 -199 71 -281t263 -82h27q193 0 263.5 82t70.5 281v403 q0 201 -69 281.5t-265 80.5h-27q-197 0 -265.5 -80.5t-68.5 -281.5v-403z" />
<glyph unicode="&#x153;" horiz-adv-x="1638" d="M104 293v498q0 166 102.5 239.5t323.5 73.5q211 0 314 -68q90 68 364 68q201 0 272.5 -81t71.5 -224v-144q0 -59 -43 -100t-180 -72.5t-368 -33.5v-43q0 -242 223 -242q174 0 338 57l43 -168q-190 -74 -381 -73q-211 0 -318 81q-102 -82 -336 -81q-221 0 -323.5 73.5 t-102.5 239.5zM336 295q0 -145 194 -145q197 0 197 145v493q0 74 -45 110t-152 36q-104 0 -149 -36t-45 -110v-493zM961 567q373 18 372 111v102q0 74 -19.5 114t-80.5 40q-143 0 -207.5 -38t-64.5 -165v-164z" />
<glyph unicode="&#x178;" horiz-adv-x="1347" d="M14 1292v181h539v-181h-133l254 -536l252 536h-131v181h538v-181h-153l-383 -727v-385h147v-180h-541v180h148v385l-389 727h-148zM358 1577v293h232v-293h-232zM756 1577v293h231v-293h-231z" />
<glyph unicode="&#x2c6;" horiz-adv-x="835" d="M82 1260l334 307l332 -307l-60 -72l-272 139l-275 -139z" />
<glyph unicode="&#x2dc;" horiz-adv-x="776" d="M47 1257q55 141 180 170q72 12 149 -25.5t134 -35.5q49 -2 94 68l127 -50q-31 -78 -81 -124t-103 -58q-72 -12 -148.5 26t-134.5 36q-47 0 -90 -68z" />
<glyph unicode="&#x2000;" horiz-adv-x="1003" />
<glyph unicode="&#x2001;" horiz-adv-x="2009" />
<glyph unicode="&#x2002;" horiz-adv-x="1003" />
<glyph unicode="&#x2003;" horiz-adv-x="2009" />
<glyph unicode="&#x2004;" horiz-adv-x="669" />
<glyph unicode="&#x2005;" horiz-adv-x="501" />
<glyph unicode="&#x2006;" horiz-adv-x="333" />
<glyph unicode="&#x2007;" horiz-adv-x="333" />
<glyph unicode="&#x2008;" horiz-adv-x="249" />
<glyph unicode="&#x2009;" horiz-adv-x="401" />
<glyph unicode="&#x200a;" horiz-adv-x="110" />
<glyph unicode="&#x2010;" horiz-adv-x="749" d="M106 510v192h539v-192h-539z" />
<glyph unicode="&#x2011;" horiz-adv-x="749" d="M106 510v192h539v-192h-539z" />
<glyph unicode="&#x2012;" horiz-adv-x="749" d="M106 510v192h539v-192h-539z" />
<glyph unicode="&#x2013;" horiz-adv-x="1189" d="M113 510v192h966v-192h-966z" />
<glyph unicode="&#x2014;" horiz-adv-x="1732" d="M106 510v192h1520v-192h-1520z" />
<glyph unicode="&#x2018;" horiz-adv-x="452" d="M18 954l205 519h185l-121 -519h-269z" />
<glyph unicode="&#x2019;" horiz-adv-x="454" d="M47 971l123 516h268l-205 -516h-186z" />
<glyph unicode="&#x201a;" horiz-adv-x="456" d="M49 -299l115 520h270l-194 -520h-191z" />
<glyph unicode="&#x201c;" horiz-adv-x="931" d="M94 954l201 519h188l-123 -519h-266zM449 954l200 519h187l-121 -519h-266z" />
<glyph unicode="&#x201d;" horiz-adv-x="911" d="M96 954l121 519h268l-202 -519h-187zM451 954l122 519h267l-199 -519h-190z" />
<glyph unicode="&#x201e;" horiz-adv-x="899" d="M49 -299l115 520h270l-194 -520h-191zM479 -299l115 520h270l-194 -520h-191z" />
<glyph unicode="&#x2022;" horiz-adv-x="673" d="M113 256v604h450v-604h-450z" />
<glyph unicode="&#x2026;" horiz-adv-x="1249" d="M92 0v268h232v-268h-232zM508 0v268h233v-268h-233zM926 0v268h231v-268h-231z" />
<glyph unicode="&#x202f;" horiz-adv-x="401" />
<glyph unicode="&#x2039;" horiz-adv-x="677" d="M49 563l416 471l156 -133l-283 -338l280 -334l-153 -135z" />
<glyph unicode="&#x203a;" horiz-adv-x="675" d="M57 229l283 334l-283 338l154 133l416 -471l-416 -469z" />
<glyph unicode="&#x205f;" horiz-adv-x="501" />
<glyph unicode="&#x20ac;" horiz-adv-x="1335" d="M49 434l33 137h160v95h-193l33 137h160v135q0 307 143 432t457 125h28q223 0 355 -74v-331h-209v190q-72 16 -146 16h-28q-203 0 -274.5 -78.5t-71.5 -279.5v-135h344l-41 -137h-303v-95h344l-41 -137h-299q14 -139 90 -198.5t252 -59.5h28q141 0 320 64l47 -195 q-184 -66 -367 -65h-28q-287 0 -430.5 103t-165.5 351h-197z" />
<glyph unicode="&#x2122;" horiz-adv-x="1792" d="M12 1276v197h619v-197h-142v65h-83v-473h83v-131h-335v131h84v473h-84v-65h-142zM557 737v131h102l115 473h-86v132h268l189 -531l190 531h264v-132h-83l114 -473h103v-131h-254l-86 432l-162 -442h-170l-168 442l-82 -432h-254z" />
<glyph unicode="&#xe000;" horiz-adv-x="1085" d="M0 1085h1085v-1085h-1085v1085z" />
<glyph unicode="&#xfb01;" horiz-adv-x="1206" d="M39 0v180h129v723h-129v180h129v64q0 236 98.5 324t315.5 57q57 -6 141 -37l-49 -154q-102 27 -148 27q-78 0 -101.5 -52t-23.5 -165v-64h658v-903h125v-180h-486v180h129v723h-426v-723h144v-180h-506z" />
<glyph unicode="&#xfb02;" horiz-adv-x="1181" d="M39 0v180h129v723h-129v180h129v64q0 236 98.5 324t315.5 57q39 -4 96 -23v21h352v-1346h129v-180h-487v180h125v723h-396v-723h144v-180h-506zM401 1083h396v263h-119v4l-4 -13q-102 27 -148 27q-78 0 -101.5 -52t-23.5 -165v-64z" />
<glyph unicode="&#xfb03;" horiz-adv-x="1802" d="M39 0v180h129v723h-129v180h129v23q0 236 98.5 324t315.5 57q57 -6 141 -37l-49 -154q-102 27 -148 27q-78 0 -101.5 -52t-23.5 -165v-23h392v64q0 236 98 324t315 57q59 -8 142 -37l-50 -154q-106 27 -149 27q-78 0 -100.5 -52t-22.5 -165v-64h629v-903h125v-180h-488 v180h129v723h-395v-723h143v-180h-505v180h129v723h-392v-723h144v-180h-506z" />
<glyph unicode="&#xfb04;" horiz-adv-x="1789" d="M39 0v180h129v723h-129v180h129v23q0 236 98.5 324t315.5 57q57 -6 141 -37l-49 -154q-102 27 -148 27q-78 0 -101.5 -52t-23.5 -165v-23h392v64q0 236 98 324t315 57q49 -6 80 -17v15h354v-1346h129v-180h-487v180h123v723h-379v-723h143v-180h-505v180h129v723h-392 v-723h144v-180h-506zM1026 1083h379v263h-105l-2 -9q-106 27 -149 27q-78 0 -100.5 -52t-22.5 -165v-64z" />
</font>
</defs>
</svg>
