<?xml version="1.0" encoding="utf-8"?>
<!-- Generator: Adobe Illustrator 15.0.0, SVG Export Plug-In . SVG Version: 6.00 Build 0)  -->
<!DOCTYPE svg PUBLIC "-//W3C//DTD SVG 1.1//EN" "http://www.w3.org/Graphics/SVG/1.1/DTD/svg11.dtd">
<svg version="1.1" id="Layer_1" xmlns="http://www.w3.org/2000/svg" xmlns:xlink="http://www.w3.org/1999/xlink" x="0px" y="0px"
	 width="40px" height="500px" viewBox="0 0 40 500" enable-background="new 0 0 40 500" xml:space="preserve">
<path fill-rule="evenodd" clip-rule="evenodd" fill="#E6AB8C" d="M7.81,303.747c-0.046-0.222-0.113-0.438-0.201-0.646
	c-0.086-0.204-0.192-0.401-0.317-0.585c-0.123-0.182-0.264-0.354-0.419-0.508c-0.156-0.156-0.327-0.297-0.51-0.42
	c-0.183-0.124-0.38-0.231-0.584-0.317c-0.208-0.088-0.425-0.155-0.646-0.2c-0.227-0.047-0.46-0.07-0.693-0.07
	s-0.467,0.023-0.692,0.07c-0.222,0.045-0.438,0.112-0.646,0.2c-0.204,0.086-0.4,0.193-0.584,0.317
	c-0.183,0.123-0.354,0.264-0.51,0.42c-0.155,0.154-0.296,0.326-0.419,0.508c-0.125,0.184-0.231,0.381-0.317,0.585
	c-0.088,0.208-0.155,0.425-0.2,0.646c-0.047,0.227-0.07,0.46-0.07,0.692s0.023,0.467,0.07,0.692c0.045,0.222,0.112,0.438,0.2,0.646
	c0.086,0.204,0.192,0.401,0.317,0.585c0.123,0.182,0.264,0.354,0.419,0.508c0.156,0.156,0.327,0.297,0.51,0.42
	c0.184,0.125,0.38,0.231,0.584,0.317c0.208,0.089,0.425,0.155,0.646,0.2c0.226,0.047,0.459,0.07,0.692,0.07s0.467-0.023,0.693-0.07
	c0.221-0.045,0.438-0.111,0.646-0.2c0.204-0.086,0.401-0.192,0.584-0.317c0.183-0.123,0.354-0.264,0.51-0.42
	c0.155-0.154,0.296-0.326,0.419-0.508c0.125-0.184,0.231-0.381,0.317-0.585c0.088-0.208,0.155-0.425,0.201-0.646
	c0.046-0.226,0.069-0.46,0.069-0.692S7.855,303.974,7.81,303.747z M4.439,301.502c0.744,0,1.422,0.277,1.94,0.732
	c-0.009,0.014-0.428,0.649-1.534,1.064c-0.502-0.923-1.054-1.656-1.099-1.714C3.97,301.531,4.201,301.502,4.439,301.502z
	 M3.736,301.588L3.736,301.588c-0.001,0-0.004,0.001-0.01,0.002C3.729,301.589,3.732,301.588,3.736,301.588z M3.186,301.783
	c0.039,0.053,0.583,0.789,1.091,1.692c-1.408,0.374-2.633,0.359-2.711,0.358C1.757,302.924,2.367,302.17,3.186,301.783z
	 M2.255,306.402c-0.468-0.52-0.753-1.208-0.753-1.963c0-0.031,0.001-0.062,0.002-0.094c0.036,0.002,1.496,0.037,3.017-0.418
	c0.084,0.165,0.165,0.332,0.238,0.499c-0.039,0.011-0.077,0.022-0.115,0.035C3.058,304.975,2.254,306.401,2.255,306.402
	L2.255,306.402z M4.439,307.5c-0.682,0-1.309-0.5-1.807-0.5h0.002c0,0,0.562-1.35,2.305-1.957c0.006-0.002,0.013-0.065,0.02-0.067
	c0.413,1.074,0.584,2.004,0.627,2.261C5.233,307.386,4.847,307.5,4.439,307.5z M6.081,306.876c-0.029-0.178-0.187-1.04-0.571-2.099
	c0.951-0.152,1.773,0.109,1.83,0.129C7.209,305.725,6.74,306.431,6.081,306.876z M5.33,304.314
	c-0.021-0.051-0.041-0.102-0.062-0.152c-0.062-0.144-0.128-0.286-0.195-0.426c1.15-0.47,1.622-1.143,1.636-1.162
	c0.411,0.5,0.661,1.139,0.668,1.836C7.334,304.4,6.34,304.188,5.33,304.314z"/>
<path fill-rule="evenodd" clip-rule="evenodd" fill="#E6AB8C" d="M5.794,203.501c0.318-0.991,0.707-1.634,1.152-2.1
	c0.334-0.348,0.506-0.458,0.311-0.075c0.087-0.07,0.21-0.162,0.307-0.211c0.541-0.255,0.502-0.042,0.13,0.188
	c1.017-0.364,0.981,0.099-0.094,0.33c0.88,0.017,1.813,0.576,2.083,1.766c0.037,0.165-0.008,0.149,0.161,0.179
	c0.363,0.064,0.707,0.06,1.04-0.046c-0.036,0.246-0.361,0.406-0.868,0.512c-0.188,0.039-0.227,0.029-0.001,0.08
	c0.276,0.062,0.588,0.078,0.915,0.063c-0.255,0.294-0.663,0.445-1.166,0.451c-0.314,1.151-1.035,1.975-1.947,2.492
	c-2.14,1.215-5.254,1.039-6.816-1.169c1.024,0.805,2.544,0.981,3.671-0.14c-0.738,0-0.93-0.553-0.345-0.852
	c-0.554-0.006-0.907-0.181-1.114-0.499c-0.078-0.121-0.079-0.13,0.05-0.223c0.141-0.102,0.332-0.147,0.531-0.162
	c-0.574-0.165-0.925-0.464-1.048-0.867c-0.04-0.133-0.046-0.126,0.09-0.161c0.132-0.033,0.303-0.051,0.455-0.059
	c-0.45-0.274-0.72-0.609-0.788-0.979c-0.065-0.35,0.001-0.26,0.263-0.16C3.937,202.309,5.104,202.79,5.794,203.501z"/>
<g>
	<path fill="#E6AB8C" d="M2.579,401.746c0,0.412-0.303,0.746-0.804,0.746c-0.471,0-0.775-0.334-0.775-0.746
		C1,401.324,1.314,401,1.795,401C2.276,401,2.57,401.324,2.579,401.746z M1,408v-5h2v5H1z"/>
	<path fill="#E6AB8C" d="M3,404.611C3,404.013,3.404,404,3.384,403H4.68l0.068,1h0.029c0.196-1,0.689-0.901,1.493-0.901
		c0.982,0,1.729,0.531,1.729,1.944V408H6v-2.78c0-0.618,0.027-1.04-0.513-1.04c-0.412,0-0.494,0.285-0.602,0.559
		C4.846,404.837,5,404.975,5,405.111V408H3V404.611z"/>
</g>
<g id="mail">
	<g>
		<polygon fill="#E6AB8C" points="6.372,4.284 11.395,2.123 11.634,1 2.462,1 2.225,2.12 		"/>
		<polygon fill="#E6AB8C" points="6.105,5.551 1.955,3.445 1,8 10.173,8 11.125,3.452 		"/>
	</g>
</g>
<g id="mail_4_">
	<g>
		<polygon fill="#E6AB8C" points="5.606,104.285 10.165,102.144 10.168,101.024 1.019,101 1.017,102.117 		"/>
		<polygon fill="#E6AB8C" points="5.606,105.548 1.013,103.377 1,107.855 10.151,107.88 10.162,103.408 		"/>
	</g>
</g>
</svg>
