<?xml version="1.0" encoding="utf-8"?>
<!-- Generator: Adobe Illustrator 15.0.0, SVG Export Plug-In . SVG Version: 6.00 Build 0)  -->
<!DOCTYPE svg PUBLIC "-//W3C//DTD SVG 1.1//EN" "http://www.w3.org/Graphics/SVG/1.1/DTD/svg11.dtd">
<svg version="1.1" id="Layer_1" xmlns="http://www.w3.org/2000/svg" xmlns:xlink="http://www.w3.org/1999/xlink" x="0px" y="0px"
	 width="40px" height="600px" viewBox="0 0 40 600" enable-background="new 0 0 40 600" xml:space="preserve">
<path fill-rule="evenodd" clip-rule="evenodd" fill="#D56F30" d="M30.783,108.814c-0.144-0.708-0.356-1.405-0.637-2.07
	c-0.275-0.653-0.612-1.283-1.011-1.871c-0.393-0.583-0.841-1.134-1.337-1.631c-0.496-0.498-1.043-0.953-1.626-1.346
	c-0.582-0.399-1.213-0.744-1.862-1.021c-0.667-0.283-1.36-0.502-2.065-0.647c-0.724-0.15-1.47-0.227-2.216-0.229
	s-1.494,0.071-2.217,0.217c-0.708,0.141-1.402,0.356-2.068,0.636c-0.653,0.272-1.28,0.615-1.869,1.01
	c-0.586,0.39-1.135,0.842-1.637,1.337c-0.495,0.494-0.948,1.042-1.342,1.624c-0.4,0.585-0.744,1.214-1.02,1.866
	c-0.283,0.664-0.5,1.358-0.646,2.066c-0.151,0.724-0.229,1.468-0.23,2.214c-0.002,0.744,0.071,1.492,0.219,2.215
	c0.143,0.709,0.355,1.404,0.635,2.068c0.273,0.654,0.613,1.283,1.01,1.872c0.392,0.584,0.841,1.132,1.334,1.631
	c0.5,0.497,1.045,0.952,1.629,1.348c0.587,0.397,1.212,0.741,1.865,1.019c0.664,0.283,1.356,0.499,2.064,0.646
	c0.722,0.15,1.469,0.228,2.215,0.229s1.493-0.071,2.218-0.218c0.705-0.144,1.4-0.355,2.067-0.637
	c0.651-0.272,1.284-0.613,1.868-1.008c0.585-0.393,1.134-0.844,1.634-1.339c0.498-0.495,0.95-1.042,1.345-1.624
	c0.402-0.586,0.743-1.213,1.021-1.867c0.284-0.662,0.501-1.355,0.648-2.064c0.149-0.723,0.227-1.47,0.229-2.214
	C31.002,110.284,30.929,109.539,30.783,108.814z M20.025,101.606c2.379,0.006,4.544,0.898,6.199,2.359
	c-0.029,0.042-1.375,2.071-4.917,3.388c-1.597-2.954-3.355-5.303-3.499-5.489C18.521,101.695,19.262,101.604,20.025,101.606z
	 M17.776,101.874h-0.004c0,0-0.01,0.003-0.028,0.006C17.753,101.877,17.763,101.875,17.776,101.874z M16.013,102.492
	c0.124,0.169,1.857,2.528,3.474,5.423c-4.507,1.185-8.425,1.127-8.674,1.124C11.435,106.131,13.393,103.724,16.013,102.492z
	 M12.996,117.258c-1.49-1.667-2.396-3.87-2.39-6.283c0-0.101,0.003-0.199,0.006-0.299c0.116,0.005,4.784,0.132,9.649-1.313
	c0.269,0.529,0.527,1.064,0.759,1.598c-0.124,0.036-0.246,0.072-0.368,0.112c-5.077,1.626-7.659,6.182-7.659,6.182L12.996,117.258z
	 M19.975,120.393c-2.18-0.006-4.184-0.757-5.772-2.006l0.006,0.002c0,0,1.81-3.921,7.386-5.847c0.02-0.008,0.041-0.014,0.062-0.021
	c1.312,3.438,1.852,6.317,1.986,7.139C22.514,120.135,21.277,120.397,19.975,120.393z M25.229,118.805
	c-0.095-0.568-0.587-3.326-1.81-6.716c3.043-0.479,5.67,0.366,5.853,0.426C28.848,115.133,27.34,117.387,25.229,118.805z
	 M22.851,110.606c-0.067-0.163-0.132-0.324-0.2-0.487c-0.195-0.46-0.407-0.916-0.621-1.364c3.682-1.492,5.197-3.641,5.241-3.701
	c1.311,1.604,2.104,3.648,2.12,5.876C29.257,110.899,26.079,110.208,22.851,110.606z"/>
<path fill-rule="evenodd" clip-rule="evenodd" fill="#E7AB8D" d="M19.468,257.982c1.025-3.168,2.275-5.22,3.701-6.707
	c1.074-1.109,1.625-1.459,0.996-0.236c0.279-0.223,0.672-0.516,0.98-0.672c1.736-0.811,1.607-0.129,0.416,0.603
	c3.252-1.155,3.139,0.325-0.303,1.054c2.812,0.061,5.795,1.858,6.646,5.665c0.117,0.526-0.027,0.478,0.514,0.574
	c1.16,0.21,2.262,0.198,3.326-0.138c-0.115,0.786-1.158,1.297-2.781,1.629c-0.6,0.123-0.723,0.09-0.004,0.254
	c0.885,0.203,1.879,0.255,2.926,0.21c-0.816,0.939-2.123,1.417-3.73,1.431c-1.018,3.68-3.326,6.309-6.25,7.955
	c-6.855,3.867-16.811,3.277-21.791-3.797c3.27,2.582,8.127,3.16,11.742-0.416c-2.361-0.004-2.971-1.777-1.096-2.727
	c-1.77-0.023-2.9-0.586-3.559-1.604c-0.25-0.387-0.254-0.417,0.16-0.713c0.451-0.324,1.064-0.467,1.701-0.514
	c-1.836-0.531-2.953-1.492-3.344-2.781c-0.127-0.424-0.146-0.404,0.289-0.512c0.422-0.105,0.969-0.162,1.455-0.184
	c-1.439-0.883-2.297-1.955-2.51-3.14c-0.209-1.118,0.004-0.833,0.84-0.511C13.536,254.15,17.265,255.699,19.468,257.982z"/>
<g>
	<path fill="#D56F30" d="M13.909,302.391c-0.004,1.319-0.976,2.385-2.577,2.381c-1.504-0.005-2.478-1.074-2.474-2.394
		c0.003-1.348,1.012-2.382,2.549-2.378C12.946,300.004,13.884,301.043,13.909,302.391z M8.931,321.992l0.04-15.345l4.772,0.013
		l-0.041,15.346L8.931,321.992z"/>
	<path fill="#D56F30" d="M16.586,311.563c0.005-1.915-0.056-3.513-0.116-4.896l4.146,0.011l0.212,2.135h0.096
		c0.626-1.002,2.171-2.473,4.741-2.467c3.143,0.009,5.489,2.117,5.478,6.637l-0.023,9.068l-4.771-0.012l0.023-8.504
		c0.006-1.977-0.682-3.33-2.406-3.334c-1.319-0.004-2.107,0.906-2.453,1.783c-0.127,0.313-0.16,0.754-0.161,1.191l-0.023,8.85
		l-4.769-0.012L16.586,311.563z"/>
</g>
<g id="mail_4_">
	<g>
		<polygon fill="#D56F30" points="20.071,10.537 34.692,3.667 34.705,0.078 5.355,0 5.349,3.581 		"/>
		<polygon fill="#D56F30" points="20.069,14.587 5.335,7.623 5.295,21.987 34.648,22.065 34.683,7.723 		"/>
	</g>
</g>
<path fill-rule="evenodd" clip-rule="evenodd" fill="#E7AB8D" d="M11.81,452.747c-0.046-0.221-0.113-0.439-0.201-0.646
	c-0.086-0.204-0.192-0.4-0.317-0.584c-0.123-0.183-0.264-0.354-0.419-0.51c-0.156-0.154-0.327-0.297-0.51-0.419
	c-0.183-0.124-0.38-0.231-0.584-0.317c-0.208-0.088-0.425-0.156-0.646-0.201C8.906,450.023,8.673,450,8.439,450
	s-0.467,0.023-0.692,0.069c-0.222,0.045-0.438,0.113-0.646,0.201c-0.204,0.086-0.4,0.193-0.584,0.317
	c-0.183,0.122-0.354,0.265-0.51,0.419c-0.155,0.156-0.296,0.327-0.419,0.51c-0.125,0.184-0.231,0.38-0.317,0.584
	c-0.088,0.207-0.155,0.426-0.2,0.646C5.023,452.974,5,453.206,5,453.439s0.023,0.466,0.07,0.692c0.045,0.222,0.112,0.439,0.2,0.646
	c0.086,0.204,0.192,0.4,0.317,0.584c0.123,0.183,0.264,0.354,0.419,0.51c0.156,0.154,0.327,0.297,0.51,0.42
	c0.184,0.123,0.38,0.23,0.584,0.316c0.208,0.088,0.425,0.155,0.646,0.201c0.226,0.046,0.459,0.069,0.692,0.069
	s0.467-0.023,0.693-0.069c0.221-0.046,0.438-0.113,0.646-0.201c0.204-0.086,0.401-0.193,0.584-0.316s0.354-0.266,0.51-0.42
	c0.155-0.156,0.296-0.327,0.419-0.51c0.125-0.184,0.231-0.38,0.317-0.584c0.088-0.207,0.155-0.425,0.201-0.646
	c0.046-0.227,0.069-0.459,0.069-0.692S11.855,452.974,11.81,452.747z M8.439,450.503c0.744,0,1.422,0.276,1.94,0.732
	c-0.009,0.013-0.428,0.648-1.534,1.062c-0.502-0.922-1.054-1.654-1.099-1.713C7.97,450.531,8.201,450.503,8.439,450.503z
	 M7.736,450.588L7.736,450.588c-0.001,0-0.004,0.001-0.01,0.002C7.729,450.589,7.732,450.589,7.736,450.588z M7.186,450.782
	c0.039,0.053,0.583,0.789,1.091,1.693c-1.408,0.374-2.633,0.359-2.711,0.358C5.757,451.925,6.367,451.17,7.186,450.782z
	 M6.255,455.402c-0.468-0.521-0.753-1.208-0.753-1.963c0-0.031,0.001-0.062,0.002-0.093c0.036,0.001,1.496,0.037,3.017-0.419
	c0.084,0.165,0.165,0.333,0.238,0.499c-0.039,0.012-0.077,0.023-0.115,0.035C7.058,453.975,6.254,455.401,6.255,455.402
	L6.255,455.402z M8.439,456.377c-0.682,0-1.309-0.233-1.807-0.623c0,0.001,0.002,0.001,0.002,0.001s0.562-1.228,2.305-1.834
	c0.006-0.003,0.013-0.005,0.02-0.007c0.413,1.073,0.584,1.974,0.627,2.23C9.233,456.294,8.847,456.377,8.439,456.377z
	 M10.081,455.876c-0.029-0.178-0.187-1.039-0.571-2.099c0.951-0.151,1.773,0.11,1.83,0.128
	C11.209,454.725,10.74,455.431,10.081,455.876z M9.33,453.313c-0.021-0.051-0.041-0.101-0.062-0.151
	c-0.062-0.144-0.128-0.286-0.195-0.426c1.15-0.47,1.622-1.144,1.636-1.162c0.411,0.501,0.661,1.14,0.668,1.836
	C11.334,453.4,10.34,453.187,9.33,453.313z"/>
<path fill-rule="evenodd" clip-rule="evenodd" fill="#E7AB8D" d="M9.794,502.501c0.318-0.99,0.707-1.633,1.152-2.1
	c0.333-0.348,0.505-0.457,0.31-0.074c0.088-0.07,0.211-0.162,0.307-0.211c0.541-0.256,0.502-0.042,0.131,0.188
	c1.016-0.363,0.98,0.1-0.094,0.33c0.879,0.017,1.812,0.576,2.082,1.766c0.037,0.164-0.008,0.149,0.162,0.18
	c0.363,0.064,0.707,0.06,1.039-0.047c-0.035,0.246-0.361,0.406-0.867,0.512c-0.189,0.039-0.227,0.029-0.002,0.08
	c0.277,0.062,0.588,0.078,0.916,0.062c-0.256,0.295-0.664,0.445-1.166,0.451c-0.314,1.151-1.035,1.975-1.947,2.492
	c-2.14,1.215-5.254,1.039-6.816-1.169c1.024,0.805,2.544,0.981,3.671-0.14c-0.738,0-0.93-0.553-0.345-0.852
	c-0.554-0.006-0.907-0.182-1.114-0.499c-0.078-0.12-0.079-0.13,0.05-0.223c0.141-0.102,0.332-0.147,0.531-0.162
	c-0.574-0.165-0.925-0.464-1.048-0.866c-0.04-0.133-0.046-0.127,0.09-0.161c0.132-0.033,0.303-0.052,0.455-0.059
	c-0.45-0.274-0.72-0.608-0.788-0.979c-0.065-0.35,0.001-0.26,0.263-0.16C7.937,501.309,9.104,501.79,9.794,502.501z"/>
<g>
	<path fill="#E7AB8D" d="M6.579,550.745c0,0.413-0.303,0.746-0.804,0.746c-0.471,0-0.775-0.333-0.775-0.746
		C5,550.324,5.314,550,5.795,550C6.276,550,6.57,550.324,6.579,550.745z M5.039,556.879v-4.799h1.492v4.799H5.039z"/>
	<path fill="#E7AB8D" d="M7.424,553.611c0-0.6-0.02-1.1-0.04-1.531H8.68l0.068,0.667h0.029c0.196-0.313,0.678-0.774,1.481-0.774
		c0.982,0,1.718,0.656,1.718,2.07v2.836h-1.491v-2.66c0-0.617-0.216-1.04-0.756-1.04c-0.412,0-0.657,0.285-0.766,0.56
		c-0.039,0.098-0.049,0.236-0.049,0.373v2.768H7.424V553.611z"/>
</g>
<g id="mail">
	<g>
		<polygon fill="#E7AB8D" points="10.372,403.284 15.395,401.123 15.633,400 6.462,400 6.225,401.12 		"/>
		<polygon fill="#E7AB8D" points="10.105,404.552 5.955,402.385 5,406.879 14.172,406.879 15.125,402.392 		"/>
	</g>
</g>
<path fill-rule="evenodd" clip-rule="evenodd" fill="#E7AB8D" d="M30.783,158.814c-0.144-0.708-0.356-1.405-0.637-2.07
	c-0.275-0.653-0.612-1.283-1.011-1.871c-0.393-0.583-0.841-1.134-1.337-1.631c-0.496-0.498-1.043-0.953-1.626-1.346
	c-0.582-0.399-1.213-0.744-1.862-1.021c-0.667-0.283-1.36-0.502-2.065-0.647c-0.724-0.15-1.47-0.227-2.216-0.229
	s-1.494,0.071-2.217,0.217c-0.708,0.141-1.402,0.356-2.068,0.636c-0.653,0.272-1.28,0.615-1.869,1.01
	c-0.586,0.39-1.135,0.842-1.637,1.337c-0.495,0.494-0.948,1.042-1.342,1.624c-0.4,0.585-0.744,1.214-1.02,1.866
	c-0.283,0.664-0.5,1.358-0.646,2.066c-0.151,0.724-0.229,1.468-0.23,2.214c-0.002,0.744,0.071,1.492,0.219,2.215
	c0.143,0.709,0.355,1.404,0.635,2.068c0.273,0.654,0.613,1.283,1.01,1.872c0.392,0.584,0.841,1.132,1.334,1.631
	c0.5,0.497,1.045,0.952,1.629,1.348c0.587,0.397,1.212,0.741,1.865,1.019c0.664,0.283,1.356,0.499,2.064,0.646
	c0.722,0.15,1.469,0.228,2.215,0.229s1.493-0.071,2.218-0.218c0.705-0.144,1.4-0.355,2.067-0.637
	c0.651-0.272,1.284-0.613,1.868-1.008c0.585-0.393,1.134-0.844,1.634-1.339c0.498-0.495,0.95-1.042,1.345-1.624
	c0.402-0.586,0.743-1.213,1.021-1.867c0.284-0.662,0.501-1.355,0.648-2.064c0.149-0.723,0.227-1.47,0.229-2.214
	C31.002,160.284,30.929,159.539,30.783,158.814z M20.025,151.606c2.379,0.006,4.544,0.898,6.199,2.359
	c-0.029,0.042-1.375,2.071-4.917,3.388c-1.597-2.954-3.355-5.303-3.499-5.489C18.521,151.695,19.262,151.604,20.025,151.606z
	 M17.776,151.874h-0.004c0,0-0.01,0.003-0.028,0.006C17.753,151.877,17.763,151.875,17.776,151.874z M16.013,152.492
	c0.124,0.169,1.857,2.528,3.474,5.423c-4.507,1.185-8.425,1.127-8.674,1.124C11.435,156.131,13.393,153.724,16.013,152.492z
	 M12.996,167.258c-1.49-1.667-2.396-3.87-2.39-6.283c0-0.101,0.003-0.199,0.006-0.299c0.116,0.005,4.784,0.132,9.649-1.313
	c0.269,0.529,0.527,1.064,0.759,1.598c-0.124,0.036-0.246,0.072-0.368,0.112c-5.077,1.626-7.659,6.182-7.659,6.182L12.996,167.258z
	 M19.975,170.393c-2.18-0.006-4.184-0.757-5.772-2.006l0.006,0.002c0,0,1.81-3.921,7.386-5.847c0.02-0.008,0.041-0.014,0.062-0.021
	c1.312,3.438,1.852,6.317,1.986,7.139C22.514,170.135,21.277,170.397,19.975,170.393z M25.229,168.805
	c-0.095-0.568-0.587-3.326-1.81-6.716c3.043-0.479,5.67,0.366,5.853,0.426C28.848,165.133,27.34,167.387,25.229,168.805z
	 M22.851,160.606c-0.067-0.163-0.132-0.324-0.2-0.487c-0.195-0.46-0.407-0.916-0.621-1.364c3.682-1.492,5.197-3.641,5.241-3.701
	c1.311,1.604,2.104,3.648,2.12,5.876C29.257,160.899,26.079,160.208,22.851,160.606z"/>
<path fill-rule="evenodd" clip-rule="evenodd" fill="#D56F30" d="M19.468,207.982c1.025-3.168,2.275-5.22,3.701-6.707
	c1.074-1.109,1.625-1.459,0.996-0.236c0.279-0.223,0.672-0.516,0.98-0.672c1.736-0.811,1.607-0.129,0.416,0.603
	c3.252-1.155,3.139,0.325-0.303,1.054c2.812,0.061,5.795,1.858,6.646,5.665c0.117,0.526-0.027,0.478,0.514,0.574
	c1.16,0.21,2.262,0.198,3.326-0.138c-0.115,0.786-1.158,1.297-2.781,1.629c-0.6,0.123-0.723,0.09-0.004,0.254
	c0.885,0.203,1.879,0.255,2.926,0.21c-0.816,0.939-2.123,1.417-3.73,1.431c-1.018,3.68-3.326,6.309-6.25,7.955
	c-6.855,3.867-16.811,3.277-21.791-3.797c3.27,2.582,8.127,3.16,11.742-0.416c-2.361-0.004-2.971-1.777-1.096-2.727
	c-1.77-0.023-2.9-0.586-3.559-1.604c-0.25-0.387-0.254-0.417,0.16-0.713c0.451-0.324,1.064-0.467,1.701-0.514
	c-1.836-0.531-2.953-1.492-3.344-2.781c-0.127-0.424-0.146-0.404,0.289-0.512c0.422-0.105,0.969-0.162,1.455-0.184
	c-1.439-0.883-2.297-1.955-2.51-3.14c-0.209-1.118,0.004-0.833,0.84-0.511C13.536,204.15,17.265,205.699,19.468,207.982z"/>
<g>
	<path fill="#E7AB8D" d="M13.909,352.391c-0.004,1.319-0.976,2.385-2.577,2.381c-1.504-0.005-2.478-1.074-2.474-2.394
		c0.003-1.348,1.012-2.382,2.549-2.378C12.946,350.004,13.884,351.043,13.909,352.391z M8.931,371.992l0.04-15.345l4.772,0.013
		l-0.041,15.346L8.931,371.992z"/>
	<path fill="#E7AB8D" d="M16.586,361.563c0.005-1.915-0.056-3.513-0.116-4.896l4.146,0.011l0.212,2.135h0.096
		c0.626-1.002,2.171-2.473,4.741-2.467c3.143,0.009,5.489,2.117,5.478,6.637l-0.023,9.068l-4.771-0.012l0.023-8.504
		c0.006-1.977-0.682-3.33-2.406-3.334c-1.319-0.004-2.107,0.906-2.453,1.783c-0.127,0.313-0.16,0.754-0.161,1.191l-0.023,8.85
		l-4.769-0.012L16.586,361.563z"/>
</g>
<g id="mail_1_">
	<g>
		<polygon fill="#E7AB8D" points="20.071,60.537 34.692,53.667 34.705,50.078 5.355,50 5.349,53.581 		"/>
		<polygon fill="#E7AB8D" points="20.069,64.587 5.335,57.623 5.295,71.987 34.648,72.065 34.683,57.723 		"/>
	</g>
</g>
<rect display="none" fill-rule="evenodd" clip-rule="evenodd" fill="#E7AB8D" width="2" height="2"/>
<rect x="38" y="598" display="none" fill-rule="evenodd" clip-rule="evenodd" fill="#E7AB8D" width="2" height="2"/>
</svg>
